<svg xmlns="http://www.w3.org/2000/svg" viewBox="0 0 115.79 191.4"><defs><style>.cls-1{fill:#ece7d9;}.cls-2{fill:#ded8cb;}.cls-3{fill:#e3ddcf;}.cls-4{fill:#f5f2eb;}.cls-5{fill:#fffcf5;}.cls-6{fill:#c1bbaf;}.cls-7{fill:#bc976b;}.cls-8{fill:#675e56;}.cls-9{fill:#c8aa90;}.cls-10{fill:#bdb6b0;}.cls-11{fill:#756d67;}.cls-12{fill:#584f4a;}.cls-13{fill:#564d3b;}.cls-14{fill:#575148;}.cls-15{fill:#544a40;}.cls-16{fill:#716159;}.cls-17{fill:#918b88;}.cls-18{fill:#5f5450;}.cls-19{fill:#5d584d;}.cls-20{fill:#786e63;}.cls-21{fill:#6a6256;}.cls-22{fill:#8c8783;}.cls-23{fill:#6f655b;}.cls-24{fill:#7d6f6d;}.cls-25{fill:#a3a662;}.cls-26{fill:#5f4e48;}.cls-27{fill:#504541;}.cls-28{fill:#88837b;}.cls-29{fill:#7a7369;}.cls-30{fill:#d2a26a;}.cls-31{fill:#72665e;}.cls-32{fill:#575237;}.cls-33{fill:#7f736c;}.cls-34{fill:#9f9998;}.cls-35{fill:#6e5f5a;}.cls-36{fill:#65652f;}.cls-37{fill:#7e706e;}.cls-38{fill:#50483b;}.cls-39{fill:#574f48;}.cls-40{fill:#625452;}.cls-41{fill:#9a8d8b;}.cls-42{fill:#565046;}.cls-43{fill:#939653;}.cls-44{fill:#686a2a;}.cls-45{fill:#616239;}.cls-46{fill:#645443;}.cls-47{fill:#9f9490;}.cls-48{fill:#685f4d;}.cls-49{fill:#654c48;}.cls-50{fill:#878645;}.cls-51{fill:#776458;}.cls-52{fill:#a0866f;}.cls-53{fill:#604e40;}.cls-54{fill:#857a6b;}.cls-55{fill:#9e9791;}.cls-56{fill:#82725d;}.cls-57{fill:#9d948e;}.cls-58{fill:#726964;}.cls-59{fill:#957757;}.cls-60{fill:#7c7066;}.cls-61{fill:#7c716b;}.cls-62{fill:#b2a6a7;}.cls-63{fill:#706b5e;}.cls-64{fill:#948889;}.cls-65{fill:#756360;}.cls-66{fill:#9f8466;}.cls-67{fill:#96877e;}.cls-68{fill:#b48f61;}.cls-69{fill:#9f8b78;}.cls-70{fill:#cec8c5;}.cls-71{fill:#3d3129;}.cls-72{fill:#877a6d;}.cls-73{fill:#58473e;}.cls-74{fill:#746c61;}.cls-75{fill:#cdc9c9;}.cls-76{fill:#8b7b77;}.cls-77{fill:#ae997f;}.cls-78{fill:#726d46;}.cls-79{fill:#bf9f85;}.cls-80{fill:#cac2bb;}.cls-81{fill:#7c6450;}.cls-82{fill:#b5b1aa;}.cls-83{fill:#cbb194;}.cls-84{fill:#51493d;}.cls-85{fill:#a8896e;}.cls-86{fill:#6a5749;}.cls-87{fill:#c6aa92;}.cls-88{fill:#c5af9c;}.cls-89{fill:#cdb395;}.cls-90{fill:#d7d1d0;}.cls-91{fill:#95775e;}.cls-92{fill:#56463c;}.cls-93{fill:#6f5a4c;}.cls-94{fill:#cec8c4;}.cls-95{fill:#c8c5c0;}.cls-96{fill:#96908c;}.cls-97{fill:#b9afa7;}.cls-98{fill:#84654d;}.cls-99{fill:#5f594e;}.cls-100{fill:#4d4939;}.cls-101{fill:#584b27;}.cls-102{fill:#474332;}.cls-103{fill:#585248;}.cls-104{fill:#6c5e58;}.cls-105{fill:#615452;}.cls-106{fill:#65514a;}.cls-107{fill:#60554d;}.cls-108{fill:#91914f;}.cls-109{fill:#6b6059;}.cls-110{fill:#77706b;}.cls-111{fill:#c9c4c4;}.cls-112{fill:#6c5350;}.cls-113{fill:#6a5f55;}.cls-114{fill:#7f786d;}.cls-115{fill:#b6b87a;}.cls-116{fill:#b8bb7d;}.cls-117{fill:#888745;}.cls-118{fill:#857576;}.cls-119{fill:#73625e;}.cls-120{fill:#453d33;}.cls-121{fill:#504c2d;}.cls-122{fill:#737071;}.cls-123{fill:#6f6761;}.cls-124{fill:#8b8683;}.cls-125{fill:#4f473b;}.cls-126{fill:#78614d;}.cls-127{fill:#7a6e43;}.cls-128{fill:#70605d;}.cls-129{fill:#684d42;}.cls-130{fill:#413b2c;}.cls-131{fill:#c8a989;}.cls-132{fill:#4d433d;}.cls-133{fill:#423e1e;}.cls-134{fill:#736763;}.cls-135{fill:#54543d;}.cls-136{fill:#90817c;}.cls-137{fill:#9a9193;}.cls-138{fill:#898375;}.cls-139{fill:#6e5f4c;}.cls-140{fill:#ccc6c2;}.cls-141{fill:#d7d2ce;}.cls-142{fill:#888174;}.cls-143{fill:#3b3725;}.cls-144{fill:#5a5148;}.cls-145{fill:#4f453a;}.cls-146{fill:#54473b;}.cls-147{fill:#251f17;}.cls-148{fill:#4f422d;}.cls-149{fill:#735a45;}.cls-150{fill:#4d4136;}.cls-151{fill:#d6b89c;}.cls-152{fill:#9b7e64;}.cls-153{fill:#443021;}.cls-154{fill:#937058;}.cls-155{fill:#8b6f4e;}.cls-156{fill:#57483c;}.cls-157{fill:#a78d6b;}.cls-158{fill:#a58c6b;}.cls-159{fill:#615448;}.cls-160{fill:#c8a28a;}.cls-161{fill:#997e68;}.cls-162{fill:#614a36;}.cls-163{fill:#e0be9f;}.cls-164{fill:#906f53;}.cls-165{fill:#644d3d;}.cls-166{fill:#2b1f14;}.cls-167{fill:#dfc9b1;}.cls-168{fill:#797c43;}.cls-169{fill:#6f605a;}.cls-170{fill:#64514a;}.cls-171{fill:#524d3e;}.cls-172{fill:#5f6222;}.cls-173{fill:#696635;}.cls-174{fill:#545139;}.cls-175{fill:#625a53;}.cls-176{fill:#51453e;}.cls-177{fill:#2c2814;}.cls-178{fill:#423c31;}.cls-179{fill:#1f1b13;}.cls-180{fill:#938c87;}.cls-181{fill:#9f8e81;}.cls-182{fill:#ae8e72;}.cls-183{fill:#c7c0b6;}.cls-184{fill:#564538;}.cls-185{fill:#ad8c72;}.cls-186{fill:#7d7672;}.cls-187{fill:#aea59d;}.cls-188{fill:#c2bfbb;}</style></defs><title>Asset 2</title><g id="Layer_2" data-name="Layer 2"><g id="Graphic_Elements" data-name="Graphic Elements"><path class="cls-1" d="M109.28,101.49l-.54,3.49-3.68,23.84-2.32,15h0l-1,6.78h0c-1,6.45-2,7.68-3,14.13q-1.14,7.41-2.29,14.83l-.55,3.57s-8.25,7.83-35.78,8.26c-21.17.33-33.72-4.6-38.8-9-.58-2.72-1.65-8.58-3-16C13.8,140.74,6.39,101.59,6.39,101.59Z"/><path class="cls-2" d="M108.74,105l-3.68,23.84-2.32,15h0l-1,6.78h0c-1,6.45-2,7.68-3,14.13q-1.14,7.41-2.29,14.83l-.55,3.57s-8.25,7.83-35.78,8.26c-21.17.33-33.72-4.6-38.8-9-.58-2.72-1.65-8.58-3-16a52.21,52.21,0,0,0,15.88,2.34,38.12,38.12,0,0,0,12.09-1.33c10.15-3.17,16.58-12.39,22.28-20.8,2-3,3.92-.78,5.72-3.88,4.88-8.38,9-17.28,15.22-24.75C94.52,111.89,101.22,106.77,108.74,105Z"/><path class="cls-3" d="M42.64,110.72c19-1.9,38-2.12,57.07-2.34a2.47,2.47,0,0,1,1.57.33,2.49,2.49,0,0,1,.67,2c.59,24.87-5.61,44.13-11.76,68.23a7,7,0,0,1-1,2.45,6.4,6.4,0,0,1-3.06,1.94,45.15,45.15,0,0,1-22.68,2.3,4.64,4.64,0,0,1-2-.66c-1.18-.83-1.38-2.48-1.46-3.93-1-16.53-.54-28-3.48-44.3a9.77,9.77,0,0,0-1.86-4.86,9.52,9.52,0,0,0-4.35-2.4,72.11,72.11,0,0,0-13.93-3c-4.1-.46-8.26-.57-12.3-1.45s-8-2.6-10.74-5.74c-1.4-1.62-4.43-7.07-2.6-9.24,1.47-1.74,7,1,9,1.26C27.35,112.48,35.07,111.47,42.64,110.72Z"/><path class="cls-1" d="M82.81,112.87c-6.06,1-12.37,2.11-18.39.92a6.09,6.09,0,0,0-2.28-.19c-.76.14-1.45.74-1.25,1.35a1.79,1.79,0,0,0,.4.57c4.9,5.45,6.39,12.42,6.92,19.15s.27,8.34,2.23,14.9c.68,2.29,2.23,4.93,5.13,5.1a5.46,5.46,0,0,0,4.3-1.91,11.07,11.07,0,0,0,1.91-3.84c3-8.77,6-12.32,8.56-21.18,1.31-4.49,2.52-9,3.57-13.56.6-2.57,1.19-3.41-2.37-2.83C88.63,111.83,85.72,112.37,82.81,112.87Z"/><path class="cls-4" d="M0,88.07H115.79l-4.66,24.62s-18.54,10.82-54.48,10S5.51,111.5,5.51,111.5Z"/><ellipse class="cls-5" cx="57.9" cy="88.04" rx="57.87" ry="9.77"/><ellipse class="cls-6" cx="56.99" cy="88.18" rx="53.11" ry="5.91"/><path class="cls-7" d="M12,85.59c4,.51,3.72-.85,7.66.63-2,.72.25,1-1.39,2.55-.6.56-2.09,4.69-3.77,1.34-.12-.24-1.26-.41-1.7-.25-1.48.54-1,.28-1.49,1-.95-.19-1.88-.46-2.84-.56-1.5-.15-1.6-1-1.66-1.87a1.84,1.84,0,0,1,1.69-2.23C9.69,86,11,86.19,12,85.59Z"/><path class="cls-8" d="M104.32,89a4.7,4.7,0,0,0-.37-1.21,2.22,2.22,0,0,0-.36-.68,2,2,0,0,0-.64-.45,7,7,0,0,0-1.61-.57l-2.29-.72A3.61,3.61,0,0,0,96.63,84a3,3,0,0,0-.79-.07,2.51,2.51,0,0,0-.75.23,5.6,5.6,0,0,0-2.79,2.64,4.45,4.45,0,0,0-.07,3.79,1.87,1.87,0,0,0,.64.8,2.31,2.31,0,0,0,1.28.19,80.56,80.56,0,0,0,8.35-.83,2.32,2.32,0,0,0,1.51-.62A1.61,1.61,0,0,0,104.32,89Z"/><path class="cls-9" d="M109.66,89.15a2.8,2.8,0,0,0-.88.73.81.81,0,0,1-.85.38,1.88,1.88,0,0,0-1.8.37.52.52,0,0,1-.72-.12c.15-.43.62-.86,0-1.32-.41.47-1.12,0-1.62.46-.81.14-1.21-.07-1.31-.69.33-.26.72-.16,1.09-.2a2.38,2.38,0,0,0,1.83-.72c.44-.61,1-.43,1.62-.33.26,0,.49.27.77.08s.63.08,1,0a3.34,3.34,0,0,0,1,1Z"/><path class="cls-10" d="M7.14,88a.47.47,0,0,0-.72-.3c-.1.14-.19.28-.29.41a3,3,0,0,1-.78,1,5.36,5.36,0,0,1,.09.7,1.69,1.69,0,0,1,0,.32c.62.16,1.21-.27,1.8,0C7.72,89.35,7.37,88.65,7.14,88Z"/><path class="cls-11" d="M33,57.23c-8.43-1.42-16.64-3.47-23.64-8.76a7.57,7.57,0,0,1-1.48-1.35c-.66-.85-.59-1.28.32-2a3.7,3.7,0,0,1,2.06,0c.82.17,1.68-.23,2.54.1a9,9,0,0,0,2.34.55c3.21.34,6.19,1.63,9.33,2.25a7.06,7.06,0,0,1,1.29.2,8,8,0,0,0,2.29.67A46,46,0,0,1,35,50.81a.45.45,0,0,1,.28.26.89.89,0,0,1-1.2.43c-.93-.4-2-.46-2.88-.88a17,17,0,0,0-4.35-1,12.81,12.81,0,0,1,1.26.66c.26.18.51.37.29.73a.6.6,0,0,1-.79.22,20.09,20.09,0,0,0-5.44-.88A3.52,3.52,0,0,1,21,50.1a2.26,2.26,0,0,0-1.49-.19,6.51,6.51,0,0,0,1.65,1.23,5.76,5.76,0,0,1,2,1.63A7.9,7.9,0,0,0,26,54.62c2,.84,4.21,1.17,6.23,2C32.51,56.73,33,56.72,33,57.23Z"/><path class="cls-12" d="M87.27,62c-2.31,2-5.15,2.92-8,3.74-.61.17-1.23.3-1.85.46s-.08.78-.35,1.1c-.58.24-1.21,0-1.8.19a1.15,1.15,0,0,1-.32,0c-.33-.15-.71-.26-.6-.76a1.54,1.54,0,0,1,.54-.28c-1.28.11-2.33-.64-3.51-.92-.38-.09-.86-.24-.88-.8a12,12,0,0,0,3-1.47,2.64,2.64,0,0,1,2.42,0c.51.28,1,.37,1.31-.18s1.37-1,.7-1.93a1.15,1.15,0,0,1-.29-.74c.06-.82-.53-1-1.13-1.16-.37-.1-.64-.1-.64.44s-.44.64-.79.3-1-.91-.82-1.71A2.1,2.1,0,0,1,76,56.79a8.73,8.73,0,0,1,4.64.31,1.6,1.6,0,0,0,1.54-.24,1.7,1.7,0,0,1,1.88-.12,15.41,15.41,0,0,0,1.64.48c1,.33,1.76,1.05,2.79,1.3.66.16.64.76.39,1.32A7.25,7.25,0,0,1,87.27,62Z"/><path class="cls-13" d="M44.29,44.54a6.06,6.06,0,0,1-1.83-.78,4.19,4.19,0,0,0-3.3-2.2,4.56,4.56,0,0,1-2.24-1.44.48.48,0,0,1,0-.79c.74-.56.52-1.17.05-1.73s-.77-1.09-.13-1.75a.52.52,0,0,0-.11-.79.63.63,0,0,0-.83,0c-1.22.83-1.3.8-1.94-.58-.09-.19-.2-.4-.39-.45-.81-.21-.89-1.43-2-1.36-.25,0-.21-.43-.2-.7a1.88,1.88,0,0,0-.6-1.53A3.67,3.67,0,0,1,30,28.85c-.21-.59-.52-.81-1.13-.68a1.43,1.43,0,0,1-.89-.05c-.22-.08-.47-.2-.51-.45-.11-.74.48-1.14.88-1.6a.72.72,0,0,1,1.09.05c.77.74,1.77,1.23,2.32,2.2.12.2.26.46.47.51,1.84.37,2.92,2,4.47,2.79.63.34.49-.57.9-.34a1.25,1.25,0,0,1,.76.41c.92.86,2,1.52,2.88,2.45.73.58,1.55,1,2.31,1.58s1.47.87,1.1,2c-.14.42.31.43.59.45s.76,0,.92.45a4.18,4.18,0,0,0,2.22,2.06c.35.2.85.31.79.89a4.27,4.27,0,0,0-1.61.73c-.44.38-.88.28-1.31-.17a6.28,6.28,0,0,0-2.7-1.62,1.55,1.55,0,0,0-1.09,0,3.59,3.59,0,0,0,1.39,1.3c.75.34,1.35.75,1.14,1.73-.09.4.62.67.23,1.15A1.2,1.2,0,0,1,44.29,44.54Z"/><path class="cls-14" d="M99.56,56.09a33.37,33.37,0,0,1-7,1.38c-2.31.49-4.46-.27-6.62-.92a1,1,0,0,1-.76-.58c1.26-.61,2.66-.85,3.92-1.48a.27.27,0,0,1,.33.16c.1.18,0,.32-.13.44-.35.4-.91.54-1.31,1,2.29-.39,3.57-2.09,5.3-3.51a1.45,1.45,0,0,0-1.37.52.82.82,0,0,1-.92.21c-.35-.17-.28-.5-.23-.8a.65.65,0,0,0-.36-.75.68.68,0,0,0-.83.13c-1.8,1.71-4,1.67-6.25,1.48A7.93,7.93,0,0,1,80.55,53a.35.35,0,0,0-.3,0,5.41,5.41,0,0,1-3.5.42c-.68-.06-1.14.62-1.41,1.27a12.94,12.94,0,0,0-2.78.3,1,1,0,0,1-.3,0c-1-.48-1.06-.79-.15-1.38.43-.27.78-.64,1.22-.88a.8.8,0,0,1,.57,0c.49.29.91.43,1-.38a.45.45,0,0,1,.6-.22c.19.05.28.27.5.29.15-.21-.2-.41,0-.61,1.13-.74,2.47-.68,3.72-1a8.92,8.92,0,0,1,1.37-.24,13.08,13.08,0,0,1,2.43.37c.82.13,1.77.53,2.67,0a1.07,1.07,0,0,1,1.46.22c.39.52.64.26.94,0,1.15-1.11,2.68-.76,4-1a.58.58,0,0,1,.53.25c.84,1.19,2,1.22,3.31,1a3,3,0,0,0,.5-.07,1.18,1.18,0,0,1,.27-.06,1.5,1.5,0,0,1,.89,0,1.23,1.23,0,0,0,1.46-.08.73.73,0,0,1,1,.25c.28.38-.16.49-.36.67.29.1.6.07.89.17a.94.94,0,0,1,.26.14c.47.59,1.25.59,1.85.92.24.14.65.12.59.54s-.36.46-.64.57A22.82,22.82,0,0,0,99.56,56.09Z"/><path class="cls-15" d="M72.49,18.34l.25.54a10.08,10.08,0,0,1-1.07,7c-.29.49-.55,1-.8,1.51-.38.83-.29,1,.67,1.17a.77.77,0,0,1-.25-.78,7,7,0,0,1,1.56-2.91,17.38,17.38,0,0,1,3.36-3.16,3.18,3.18,0,0,1,1.46-.63.94.94,0,0,0,.84-.62,1.57,1.57,0,0,1,1.77-.87c1,.09.87,1.3,1.47,1.85.34.31.18.76-.18,1.05a2.09,2.09,0,0,0-.63,1.23c-.15.32-.43.72-.7.64-1-.26-.91.33-1.08,1A2.3,2.3,0,0,1,77.66,27a2.79,2.79,0,0,0-1.31.9c-.35.44-.63.93-1.32.93-.29,0-.39.33-.5.58a2,2,0,0,1-1.4,1.05c-.78.23-.71-.59-.93-1-.83.05-.87,1-1.5,1.29-.4.18-.76.75-1.23.27s-.17-.88.06-1.31c0-.08.11-.13.14-.22-1.3.44-1.34.42-1.77-1.13a15,15,0,0,0-1.29-4.73c-.64-1.43-.44-1.56,1-2.22a16.22,16.22,0,0,0,4.07-2.73C71.89,18.43,72.13,18.21,72.49,18.34Z"/><path class="cls-16" d="M47.33,31.63c-.11-.28-.41-.47-.41-.81.83-.07,1-.5.86-1.29-.28-1.26-.71-2.48-.9-3.77a2.87,2.87,0,0,0-1.58-2.21,1.53,1.53,0,0,1-.79-1.32A1.51,1.51,0,0,0,44,21a1.8,1.8,0,0,0,.23,1.54c.93,1.56,1.09,3.37,1.58,5.06a.59.59,0,0,1-.11.57c-.34.1-.4-.18-.5-.37-1.09-2.37-2.61-4.52-3.46-7a2.21,2.21,0,0,1-.26-1.36c.69-.58.79-.51,1.16.78-.53-2.09-1.31-4.13-1.29-6.33a6.2,6.2,0,0,0,3.12-4c.06-.19.06-.45.28-.48s.41.19.49.43a1.55,1.55,0,0,1,.07.6c-.13,1.5.2,3-.47,4.5a.75.75,0,0,0,.06.78c.81.93,1.36,2.19,2.82,2.37a1.07,1.07,0,0,1,.27.12,3.12,3.12,0,0,0,1.38.92.83.83,0,0,1,.6.49,4.44,4.44,0,0,0,1.64,1.77.66.66,0,0,1-.11.58c-1.3,1.85-1.35,4-1.54,6.15-.07.77.16,1.66-.84,2.21,1.29.73.63,2,1,3,.1.64.66,1.48-.06,1.83-.51.25-.93-.64-1.26-1.1A5.2,5.2,0,0,1,47.33,31.63Z"/><path class="cls-17" d="M35.21,51.19a58.91,58.91,0,0,0-8.65-2.38c-.32-.07-.67-.07-.83-.44A1.15,1.15,0,0,1,27,48.21a23.19,23.19,0,0,0,4.53.84c.43,0,.7.4,1.09.51a1.65,1.65,0,0,0,1.1.11c0-.4-.25-.49-.57-.52a51.34,51.34,0,0,1-7.63-1.64,22.94,22.94,0,0,1-3.7-.83,16.83,16.83,0,0,1-1.64-.7.9.9,0,0,1-.51-1.08.82.82,0,0,1,.9-.77c1.07.09,2.13-.12,3.2,0a28.73,28.73,0,0,1,5.66,1.24A69.11,69.11,0,0,1,46.09,52.6c0,.06-.08.13-.13.14-2.12.24-4.21,1.51-6.35.1l-.28-.12c-1.21-.84-2.74-.78-4-1.42A.52.52,0,0,1,35.21,51.19Z"/><path class="cls-18" d="M102.76,23a5.25,5.25,0,0,1-1.59,3,2.86,2.86,0,0,1-1.26,1,14.76,14.76,0,0,0-3.2,2.22,85,85,0,0,1-9.83,6.94.88.88,0,0,0-.24.19,57.42,57.42,0,0,1-9.48,3.6c0-.64.53-.72.91-.92,1.66-.88,3.55-1.22,5.23-2.08a19.19,19.19,0,0,0,6.34-5.33.79.79,0,0,0,.24-.54,3.31,3.31,0,0,1,.57-2.18c.11-.2.22-.47,0-.67s-.43,0-.63.08-.58.2-.85,0c-.3,0,.43-.59-.19-.3-.89.4-1.71.94-2.62,1.28-.34.13-.78.37-1-.05s.28-.63.61-.84A47.76,47.76,0,0,1,91,25.84c1.31-.6,2.7-1,4-1.57.07,0,.14-.06.2,0,1.43.48,2.48-.53,3.68-.93a18.67,18.67,0,0,1,2.31-.71A1.41,1.41,0,0,1,102.76,23Z"/><path class="cls-19" d="M33,57.23a16,16,0,0,0-4.07-1.32,15.32,15.32,0,0,1-7.48-4.22,22.71,22.71,0,0,0-2.11-1.4c-.17-.14-.44-.27-.33-.55s.34-.16.53-.16a2.24,2.24,0,0,1,.9,0,5.62,5.62,0,0,0,2.48.46c1.26,0,2.47.82,3.82.34.38-.14.54.3.75.56a.41.41,0,0,0,.69,0c.33-.41-.14-.37-.32-.5A2.48,2.48,0,0,0,26.58,50a.34.34,0,0,1-.34-.31c0-.29.26-.29.44-.26a26.47,26.47,0,0,1,4.87,1.06c1.16.42,2.32,1.08,3.66.75h0c.9.67,2.06.46,3,1a12,12,0,0,0,1.2.47h0c.35.26,1.05.11,1,.84a23.71,23.71,0,0,1-3.82-.68c-1.15-.2-2.15-.94-3.36-.93-.09,1.57.05,1.75,1.55,2a2.46,2.46,0,0,1,.39.09c.33.14,1,0,.87.58a1,1,0,0,1-1.11.8,3.35,3.35,0,0,1-2.46-.64.47.47,0,0,0-.61-.07l2,1.09a17.35,17.35,0,0,0,5,1.92A36.83,36.83,0,0,1,44,59.25c.35.12.79.28.71.82-1.71-.47-3.41-1-5.13-1.39C37.38,58.16,35.18,57.71,33,57.23Z"/><path class="cls-20" d="M102.76,23a2.75,2.75,0,0,0-2.33.09c-1,.32-2,.76-3,1.16-.62.24-1.18.88-1.91.22-.06-.06-.27,0-.38,0-2.82,1.27-5.83,2.09-8.47,3.76a4.71,4.71,0,0,1-.73.31c-.25.12-.75.1-.62.48s.52.07.75,0c.88-.41,1.73-.87,2.6-1.29.32-.15.62-.42,1.12-.13l-.76.65a.61.61,0,0,1-.25.39c-3.65,1.91-7.49,3.4-11.22,5.12-3.07,1.41-6.3,2.2-9.42,3.38a2.4,2.4,0,0,1-1.37.19c-.51-.15-.54-.53-.44-1a17.71,17.71,0,0,0,.71-3.21c0-.4.28-.79.72-.4a1.73,1.73,0,0,0,2,.18,14.88,14.88,0,0,0,2-.8A20.6,20.6,0,0,1,74.31,31a18,18,0,0,0,3.14-1.31,12.55,12.55,0,0,1,3.44-1.34c.38,0,.83-.28,1.12.14s0,.7-.18,1c-.06.12-.14.23-.09.38s.33,0,.46-.12a58.72,58.72,0,0,1,10-4.82,50.91,50.91,0,0,1,8.1-2.68,7.42,7.42,0,0,1,1.82.09C102.45,22.47,102.82,22.52,102.76,23Z"/><path class="cls-21" d="M47.9,76a5.78,5.78,0,0,0-3-.79A7.71,7.71,0,0,1,42.86,75c.33-.38.83-.17,1.25-.33a2.35,2.35,0,0,0-2-.47,3.35,3.35,0,0,1-2-.34,4.5,4.5,0,0,0-2.25-.42,7,7,0,0,1-2.52-.58,26.25,26.25,0,0,1-3.5-.85c-.61-.27-1.12.37-1.68.24-.07.12-.08.19,0,.25.83,1,.83,1-.29,1.74a2.81,2.81,0,0,1-.48.35,5.7,5.7,0,0,1-1.06-1.75A3.27,3.27,0,0,1,30,69.3c.33-.19.72-.61,1.07.07.13.27.33,0,.45-.11A3.52,3.52,0,0,1,34,68.7c1,.14,2-.47,3-.45a3.62,3.62,0,0,1,2.54.92c.4.54,1.18.67,1.44,1.36.08.21.27.15.44.12s.51-.11.56.06c.19.67.87.5,1.26.8a26.44,26.44,0,0,0,5.08,2.8c1,.49,1.17.56,1.88-.38.18-.23.31-.6.66-.53s.28.41.33.67a4.66,4.66,0,0,1,0,.65c0,1.41-.09,1.48-1.48,1.49C49.12,76.21,48.47,76.47,47.9,76Z"/><path class="cls-22" d="M20.7,83.25a2.15,2.15,0,0,0,1.44-.62,14.17,14.17,0,0,1,7.71-2.84c.77-.07,1.72.2,2.26-.72a.3.3,0,0,1,.27-.09c1.47.76,2.52-.44,3.78-.75a22.55,22.55,0,0,1,3.78-.42,13.51,13.51,0,0,0,3.94-.62,2.93,2.93,0,0,1-2.39,2.06c-.41,0-1,.13-1.08-.43s.58-.41,1-.54a13.25,13.25,0,0,0-3,.2c-.37,0-.8.1-.76.6s.4.61.79.64a2.32,2.32,0,0,1,1.89.71c.44.52.52.8-.12,1.14-.89.47-1.71,1.08-2.82.86a1.7,1.7,0,0,0-.77.18,2.6,2.6,0,0,1-.47.09c-1.4-.08-2.78.36-4.2.09-.61-.12-1.15.47-1.72.75-2.73-.11-5.16,1.15-7.75,1.69-.33.06-.57.33-.88.47-.77-.12-1.1-.82-1.63-1.24C19.77,83.79,20.2,83.5,20.7,83.25Z"/><path class="cls-23" d="M11.4,17.32a.93.93,0,0,1-.22-.79c.73-.13,1.05.46,1.3.9.81,1.4,2.2,2,3.5,2.73a10.92,10.92,0,0,1,2.22,1.36.91.91,0,0,0,1.1.23.72.72,0,0,1,1.06.44,3.38,3.38,0,0,0,2.44,1.89c.43.14.86.29.86.85,0,.29.13.21.3.18.43-.08.52.22.53.54A1.83,1.83,0,0,0,25.26,27c.91.75,1.47,1.92,2.71,2.31a.88.88,0,0,1,.48.62c.15.57.3,1.09,1,1.22.32.07.33.47.43.75s.15.57.4.51c.82-.17,1,.32,1.09.94.05.31.31.42.54.55a1,1,0,0,1,.63.74c.09,1,.84,1.48,1.6,1.92.36.21.77.37.52.89s-.63.42-1,.24c-.18-.07-.34-.23-.62-.11,0,.44.32.58.61.78.92.67,2,1.11,2.86,1.87.26.23.66.39.55.86a47.49,47.49,0,0,1-8.48-5.2,3.42,3.42,0,0,1-1.43-2.2c-.05-.56-.61-.91-1.19-1.09-1.19-.37-1.22-.43-1.17-1.6s0-2.13-1.4-2.64c-.75-.28-1.14-1.2-1.57-1.9a4.58,4.58,0,0,0-2.05-2,3.78,3.78,0,0,1-1.95-1.57,2.46,2.46,0,0,0-1.89-1.18,2.34,2.34,0,0,1-1.4-.69A15.13,15.13,0,0,1,11.4,17.32Z"/><path class="cls-24" d="M41.47,13.88c.31,2.32,1.08,4.56,1.36,6.89-.47-.3-.39-.81-.57-1.21s-.38-.42-.6,0a1.68,1.68,0,0,1-.67-2c1-.08.54.71.8,1-.54-2.26-1.16-4.63-1.82-7-.07-.39-.21-.77-.29-1.17s-.25-1,0-1.37c.48-.63.66-1-.15-1.51-.28-.16,0-.42.16-.57a1.34,1.34,0,0,0,.47-1.07,2.25,2.25,0,0,1,.44-1.8.53.53,0,0,0,0-.57A1.19,1.19,0,0,1,41.08,2c.24-.19.34-.47.11-.7s-.57-.11-.79.13a2,2,0,0,0-.45,1,2.9,2.9,0,0,1-.12.79c-1,2-.94,4.08-1,6.19a.69.69,0,0,1-.15.28.26.26,0,0,1-.29,0A12.6,12.6,0,0,1,39.48,1.4C40.3-.19,41.07-.36,42.62.55a20.68,20.68,0,0,1,8.69,10.09,5.26,5.26,0,0,0,1.09,2,3.27,3.27,0,0,1-.69.92c-.1,0-.25.07-.29,0-.78-1.14-2.23-1.47-3.06-2.59A29.9,29.9,0,0,1,45.7,7.24,5.28,5.28,0,0,1,45,5.48a3.6,3.6,0,0,0-1.51-2.29c-.18-.13-.43-.29-.64-.1s0,.38,0,.57A18,18,0,0,0,44,5.81c.16.35.5.79,0,1.07s-.81-.13-1.07-.49a6,6,0,0,1-1-2.19,12.09,12.09,0,0,0-.61,3.68,30,30,0,0,0,.18,4.92A1.81,1.81,0,0,1,41.47,13.88Z"/><path class="cls-25" d="M51.33,65.68c-.1-.8.26-1.63-.15-2.41.12-.79-.08-1.64.4-2.38a1.31,1.31,0,0,0,.45-1,14.4,14.4,0,0,0-.21-4.49,1.92,1.92,0,0,1-.09-.32A1.56,1.56,0,0,1,52,53.81,12.78,12.78,0,0,0,52.54,51a.31.31,0,0,1,.09-.48c.88-.79.9-.8,1.73.09a2,2,0,0,0,2.09.65c.86-.21,1.11-.7.85-1.56s-.46-1.74-.72-2.6c-.1-.31-.11-.71-.54-.75s-.54.34-.69.63a4,4,0,0,1-.83,1.24c-.41.34-.83.72-1.42.37a1.63,1.63,0,0,1,.67-2.08c.84-.52,1-1.48,1.47-2.2.5-.54,1-.26,1.42.06l.35.32a9.58,9.58,0,0,1,1.84,6.38c-.06.58-.38,1.14-1,1.11-1.31-.09-2,.7-2.81,1.61.3.22.68.13,1,.18a2.23,2.23,0,0,1,2,2.16c.09,1-.41,1.89-.34,2.87a2.68,2.68,0,0,1-2.05,1.67.62.62,0,0,0-.38.82A2.54,2.54,0,0,1,55,63.41a2.85,2.85,0,0,0-.31,1.46,4,4,0,0,1-.09,1.19,1,1,0,0,1-1,.8c-.48,0-.7-.33-.85-.73a2.71,2.71,0,0,1,.06-1.86,1.68,1.68,0,0,0,0-1.37.22.22,0,0,0-.34-.06c-.44.33-.35.83-.4,1.29-.07.65.24,1.45-.65,1.82C51.25,65.87,51.24,65.79,51.33,65.68Z"/><path class="cls-26" d="M37,41.1c-1-1.21-2.46-1.69-3.65-2.58-.15-.11-.4-.11-.5-.3s-.47-.67-.17-1,.55,0,.81.14a5.29,5.29,0,0,0,.52.29.42.42,0,0,0,.49-.26c.09-.21.06-.46-.19-.47-.66,0-.91-.65-1.42-.89a.87.87,0,0,1-.53-.89A1,1,0,0,0,31.6,34c-.29-.07-.5-.17-.48-.61s0-1.09-.81-.6c-.09,0-.37,0-.37,0,.14-1.3-1.65-1.34-1.65-2.59,0-.64-.66-.91-1.2-1.07a1.58,1.58,0,0,1-1.08-1,1.82,1.82,0,0,0-.74-.79,2.15,2.15,0,0,1-1.06-2.05c-.19-.11-.31,0-.41.14s-.23.37-.47.19,0-.28,0-.43c.33-.6,0-.7-.53-.86-1.12-.36-2.28-.71-2.68-2.05-.12-.38-.3-.61-.81-.27a.86.86,0,0,1-1.29-.31c-.32-.53-.93-.67-1.43-.9-1-.45-1.82-1.18-2.85-1.56a2.21,2.21,0,0,1-1-1,4.51,4.51,0,0,0-1.62-1.74h0c-.07-.32-.25-.7.14-.89s.56.16.74.39a2.58,2.58,0,0,0,1.07.71,16.65,16.65,0,0,1,3.12,1.8c1.43.81,2.85,1.61,4.26,2.45a7.28,7.28,0,0,0,2.42,1.39,8.91,8.91,0,0,0-2.12-2.08,5.27,5.27,0,0,1-1.69-1.39c-.24-.63,0-.81.6-.63a20.7,20.7,0,0,1,2.59,1.27c2,1.25,3.91,2.55,5.76,4,2.67,2.08,5.28,4.22,8,6.28.35.28.85.46.88,1-.21.47-.55.27-.85.16A4.6,4.6,0,0,1,35,30.33c-1.78-1.35-3.48-2.83-5.28-4.14-1.43-1-2.81-2.15-4.27-3.15-.27-.19-.62-.67-.92-.37A1.07,1.07,0,0,0,24.41,24c1,1.18,1.38,2.81,2.66,3.81a6.9,6.9,0,0,0,.89.64,1.86,1.86,0,0,1,.8.6c.59,1,1.72,1.7,2.26,2.63.71,1.25,2,1.94,2.54,3.28a1.43,1.43,0,0,0,.86.79c1.48.64,1.66,1.41.66,2.73,1.16.31,1.5,1.46,2.22,2.22a.4.4,0,0,1-.07.55Z"/><path class="cls-27" d="M88.85,28.4l.2-.2a1.62,1.62,0,0,0,1.11-.4c.56-.38.72-.1.7.44a1.46,1.46,0,0,1-.11.58,4.11,4.11,0,0,0-.6,2.23c.1.78-.87,1.37-1.42,2A17.93,17.93,0,0,1,81,38.11c-1.35.45-2.79.73-3.87,1.78l-2.8.83a8.15,8.15,0,0,0-2.39,1c-.49.31-1,.71-1.67.47,0-.51-.63-.91-.27-1.49a.83.83,0,0,1,.55-.22A24.36,24.36,0,0,0,77,38.53c1.22-.47,2.29-1.22,3.53-1.68.77-.29,1.19-1.25,1.85-1.86a2.48,2.48,0,0,0-2.42.27c-.78.64-1.83.27-2.7.64-.24.1-.55.05-.77.21a6.38,6.38,0,0,1-4.16.84.51.51,0,0,1-.32-.49c.17-.51.64-.53,1-.63A11.49,11.49,0,0,0,77.71,34a2.16,2.16,0,0,1,1-.39A8.61,8.61,0,0,0,82.84,32a9.8,9.8,0,0,1,1.6-.75c.09,0,.23,0,.29-.09a1.41,1.41,0,0,1,2.37-.05c.3.31,1,.16,1.38-.23s.27-.77.08-1.19A.89.89,0,0,1,88.85,28.4Z"/><path class="cls-28" d="M39.44,69.34a4.2,4.2,0,0,0-4.19-.51,3.44,3.44,0,0,1-2.14.09c-.66-.21-1.1.52-1.72.69s-.56.31-.61-.52c-1.06.73-2.32,1.18-2.11,2.83,0,.28-.23.6-.36.9A3.18,3.18,0,0,1,29.57,69a9.22,9.22,0,0,1,4.73-1.56c2.76-.1,5.35-.91,8-1.39a8.37,8.37,0,0,1,3.79.07c.4,1.73,1.86,2.1,3.27,2.51a4.91,4.91,0,0,1,1.9.8,1.37,1.37,0,0,1,0,1,6.51,6.51,0,0,1-3.74,1.62.53.53,0,0,1-.38-.1c-1.32-1.31-3.38-.94-4.76-2.15-.51-.44-1.34-.36-2-.76C40.06,68.8,39.91,69.72,39.44,69.34Z"/><path class="cls-29" d="M36.61,82.43c.21-.1.45-.32.62-.27,1.34.35,2.25-.55,3.35-1.11-.64-.59-1.17-1.26-2.25-1.06a.94.94,0,0,1-1.07-1c0-.7.52-.8,1.12-.84,1.25-.07,2.5-.2,3.84-.31-.3.9-1.13.58-1.69.85a1.51,1.51,0,0,0,2-.2,6.26,6.26,0,0,0,1.33-1.34,5.69,5.69,0,0,1,3-1c.35,0,.74.09,1-.22.83.11,1.64-.09,2.47,0,1,0,.37-.91.58-1.37a.37.37,0,0,1,.59.11c.4,1,1.13.85,1.9.63a1.16,1.16,0,0,1,.49,0c.48.35.75.91,1.32,1.19.38.19.25.51-.11.65a1.05,1.05,0,0,1-1.06-.1c-.88-.72-1.44-.3-1.93.47a.74.74,0,0,1-.25.25c.16-.1,0,0,.06,0,.41-.34.81-.49,1.21,0a.44.44,0,0,1,0,.56c-1,.82-2.19.84-3.35,1.07-1.44.31-2.72,1.06-4.17,1.37-.75.16-1,1.18-1.54,1.78a1.62,1.62,0,0,1-.43.6.5.5,0,0,1-.43,0,1.35,1.35,0,0,1-.08-1.59A1,1,0,0,0,43,80.23c-.35-.44-.72-.48-1,0a5.09,5.09,0,0,0-1,2.14c-.08.57-.36.88-1,.58a1,1,0,0,0-.85,0A2.34,2.34,0,0,1,36.61,82.43Z"/><path class="cls-30" d="M20.05,84.68a3.21,3.21,0,0,1,1.44,1.24c.67.3.65.89.64,1.49,0,.16,0,.32.15.44,1.51,1.08,1.73,2.84,2.28,4.42a.93.93,0,0,1-1.29.34c-1.26-.15-2.55.14-3.79-.27a5,5,0,0,0-1.27-.18,2.67,2.67,0,0,1-2.36-1c-.5-.72-1.2-.25-1.83-.19-.25-.45,0-.76.28-1.08a2,2,0,0,0,.93-1.62c.1-.69.63-1.18.85-1.82a1.88,1.88,0,0,1,1.58-1.53l.21-.05A2.89,2.89,0,0,1,20.05,84.68Z"/><path class="cls-31" d="M99.56,56.09c.84-1.09,2.17-1.3,3.3-1.86.29-.14.62-.15.77-.46-.8-.55-2-.3-2.48-1.38a.94.94,0,0,0,.18-.52c-.1.18,0,.4-.17.53a2,2,0,0,1-.7,0c-.28-.13-.79.17-.85-.24-.07-.57.62-.16.91-.63-.46-.07-.81-.6-1.2.13-.18.32-.44.44-.71.12-.42-.49-1-.33-1.49-.36-.23-.38,0-.55.32-.66s.46,0,.39-.3-.28-.29-.49-.26a21.83,21.83,0,0,0-2.74.2c1,.18,2,0,2.52,1a4.78,4.78,0,0,1-3.51-.07.29.29,0,0,1-.16-.12c-.52-1.52-1.59-.76-2.56-.67s-2.08.12-2.57,1.34c-.11.28-.46,0-.64-.2-.73-.91-.73-.91-1.59-.19-.24.2-.48-.11-.64,0-.42.19-.94-.86-1.28.1a1.09,1.09,0,0,1-.53-.15,3.14,3.14,0,0,0-2.45-.61.26.26,0,0,1,0-.31,1,1,0,0,1,.53-.28c1.69-.19,3.33-.72,5-.81,1.23-.09,2.46-.19,3.68-.32a4.87,4.87,0,0,1,1.39-.16c1.8.36,3.57-.1,5.36-.12a1.32,1.32,0,0,1,1,.25,1.36,1.36,0,0,0,1.75.18,3.07,3.07,0,0,1,2.43.07A8.09,8.09,0,0,1,106,50.79c1.09,1.1,1.12,1.33-.09,2.22A20.17,20.17,0,0,1,99.56,56.09Z"/><path class="cls-26" d="M37.23,41.24a5.64,5.64,0,0,0-2.5-2.82c1.13-1.05,1-2-.37-2.4a1.47,1.47,0,0,1-1.06-1,2.26,2.26,0,0,0-.92-1.27,2.89,2.89,0,0,1-1.11-1.48c-.24-.75-1.12-.94-1.59-1.55a4,4,0,0,1-.72-.92,2.83,2.83,0,0,0-1.15-1.2c-1.18-.87-2.46-1.71-2.71-3.35a.62.62,0,0,0-.24-.42c-1.08-.51-.88-1.41-.75-2.31.07-.44.1-.65.59-.31A26,26,0,0,1,28,24.83c.58.56,1.41.7,2,1.23a15.46,15.46,0,0,1,1.48,1.3c1.23,1.3,2.89,2,4.19,3.18.23.21.63.7,1.11.24.55-.14.8.1.82.64-.89.17.13.62-.28,1-1-1.06-2.55-1.38-3.48-2.6a1.2,1.2,0,0,0-1-.54,1.17,1.17,0,0,1-1.31-.81c-.49-1-1.61-1.37-2.28-2.2-.32-.4-.78-.32-1.06.18a.62.62,0,0,0-.07.19c0,.41-.91.5-.47,1s.89.35,1.4.16a.65.65,0,0,1,.88.28,9.76,9.76,0,0,0,1.45,2.65,1.41,1.41,0,0,1,.1,1.77c.84-.38,1.29-.29,1.37.59,0,.29.4.41.68.53s.86.4.73.93.27.63.58.77.63-.05.74-.44.28-.5.67-.36.92.05.94.69c0,.31.34.64-.26.87s-.33.76,0,1a2.33,2.33,0,0,1,.69,1.18c.15.51.1.82-.42,1s-.33.36,0,.71c.91,1.09,2.29,1.11,3.44,1.65.84.39,1.85.76,1.82,2A34.48,34.48,0,0,1,37.23,41.24Z"/><path class="cls-32" d="M44.69,60.07a.79.79,0,0,0-.5-.46,49,49,0,0,0-5.82-1.8,14.41,14.41,0,0,1-4.82-2,5.44,5.44,0,0,0-1.71-.8c-.39-.08-.51-.27-.42-.63s.4-.25.65-.19a2.86,2.86,0,0,1,1,.6,2.5,2.5,0,0,0,2.83-.29,1,1,0,0,0,0-.19c-.76.11-1.41-.41-2.24-.29-.34.05-.69-.6-.69-1.09a2.76,2.76,0,0,0-.51-1.6l8,2c.95.26,1.17.56,1.27,1.77-.07,1.35.5,2.12,2.06,2.55a4.67,4.67,0,0,1,2.26,1.22.92.92,0,0,1,.32,1c-.15.41-.51.48-.91.35A1.16,1.16,0,0,1,44.69,60.07Z"/><path class="cls-33" d="M11.4,17.32A37.88,37.88,0,0,0,14.78,21a1.82,1.82,0,0,0,1.18.49,3,3,0,0,1,2.13,1.38c.21.32.15,1.07.91.64a.21.21,0,0,1,.18,0c.17,1.27,1.72.8,2.19,1.79A24.48,24.48,0,0,0,23,27.78a1.21,1.21,0,0,0,.6.49A2.08,2.08,0,0,1,25,31c-.23,1,.16,1.28,1,1.39a1.85,1.85,0,0,1,1.44,1.69c0,.8.83,1.16,1.1,1.83A40,40,0,0,1,23,31.19a68,68,0,0,1-9.7-10.57A11.77,11.77,0,0,1,11.4,17.32Z"/><path class="cls-34" d="M23.74,44.12c-1,.07-2.06.52-3.15.23-.34-.1-.78.12-.72.46s-.2.68.45,1c1,.51,2.15.38,3,1.17.29.28.63-.12,1,0a17.57,17.57,0,0,0,3,.75c2,.17,3.85,1.37,6,1.1.72-.1.87.49,1,1,0,.26-.19.33-.41.28a12,12,0,0,1-1.46-.36,35,35,0,0,0-6.56-1.4A33.75,33.75,0,0,1,20,47.15a14.64,14.64,0,0,0-4.25-.9,15,15,0,0,1-3.62-.88c-.19,0-.46-.2-.57-.13-1.16.8-2.25-.4-3.39-.1a14.44,14.44,0,0,1,6.16-1.59,43.91,43.91,0,0,1,9,.43A1.28,1.28,0,0,1,23.74,44.12Z"/><path class="cls-35" d="M85.22,55.83a5.73,5.73,0,0,0,2.73,1c.23,0,.54-.07.69.05,1.2,1,2.62.41,3.92.59a8.39,8.39,0,0,1-3.62.21c1,2.1-.24,3.22-1.67,4.27.45-.69.93-1.35,1.35-2.06s.27-1.09-.63-1.25-1.5-1-2.36-1.2c-1.46-.67-2.91-1.36-4.55-.52a1.44,1.44,0,0,1-1.17,0,5.45,5.45,0,0,0-3-.15A17.65,17.65,0,0,0,74.5,57c-1.24.42-1.26.37-.83,1.6a1.07,1.07,0,0,1-1,1.54A1,1,0,0,1,72,60a1.16,1.16,0,0,0-.94-.2.6.6,0,0,1-.79-.43c-.12-.4.13-.65.44-.81a2.07,2.07,0,0,0,1.1-1c.38-.85.09-1.33-.83-1.25a3.25,3.25,0,0,0-1.78.6,1.65,1.65,0,0,1-1.68.4c0-.74.15-.93,1.15-1.42.13,0,0-.09,0-.07a.51.51,0,0,1-.84-.06c.13-.45.54-.47.89-.58,1.2-.09,2.38-.37,3.59-.38h0c1.88,0,3.76,0,5.64-.12.88,0,1.75.5,2.65.09A10,10,0,0,1,85.22,55.83Z"/><path class="cls-36" d="M45.46,60.28c.31-.09.74-.08.75-.5a1.21,1.21,0,0,0-.48-.79,3.35,3.35,0,0,0-2.08-1c-1-.11-1.38-1.14-2.29-1.39a6.57,6.57,0,0,1,.11-1.4c.16-.1.32,0,.48,0-.48-1.21-.28-1.42,1-1.32.89.07,1.74.52,2.72.1.44-.19.84.62,1.26,1a1.28,1.28,0,0,1-.38,1.09.86.86,0,0,0,.18,1.31,14.66,14.66,0,0,0,3,1,.77.77,0,0,0,1-.57,8,8,0,0,0,.35-2.37c0-.31.12-.62.48-.67s.19.3.34.41h0a11.47,11.47,0,0,1-.25,5.61,1.27,1.27,0,0,1-1.73.45c-.28-.13-.6-.07-.87-.19A11.38,11.38,0,0,1,45.46,60.28Z"/><path class="cls-37" d="M82.37,17.5a19.13,19.13,0,0,1,5.82-1.35,11.67,11.67,0,0,1,2.7-.26c.48,0,1,.09,1,.76a20.6,20.6,0,0,1-.63,5.85,1.3,1.3,0,0,1-.14.26,2.12,2.12,0,0,1-2.29,1.17c0-.86.69-1.32,1.18-1.89a1.33,1.33,0,0,0,.85-1.7,8.66,8.66,0,0,1,0-1.61,1.36,1.36,0,0,0-.2-.86.51.51,0,0,0-.53-.22c-.2,0-.24.2-.21.39.07.37-.16.56-.43.71-.9.49-1.55,1.29-2.43,1.8-.17.1-.38.24-.4.43-.23,1.67-1.76,2.08-2.83,2.93-.33.27-.72.47-1.07.73a.66.66,0,0,1-.92-.07c-.29-.31-.12-.63.14-.88a15.39,15.39,0,0,1,1.24-1,2.75,2.75,0,0,0,1.22-1.77,1.37,1.37,0,0,1,.54-.83c.15-.13.34-.27.22-.5s-.43-.06-.64-.1c-.46-.09-.78-.38-.67-.83.19-.83-.26-.88-.86-.87A.69.69,0,0,1,82.37,17.5Z"/><path class="cls-38" d="M29.37,74.57c.08-.89.9-.79,1.5-1.13A2.29,2.29,0,0,1,29.56,72c.57-.26,1.34.38,1.7-.45a.36.36,0,0,1,.27,0c1.47.87,3.25.63,4.77,1.35a.42.42,0,0,0,.19.06c1.83.11,3.57.8,5.36.92a10.44,10.44,0,0,1,2.58.5c.15,0,.37,0,.36.24s-.21.34-.42.35c-.5,0-1,0-1.51,0-3.42-.74-6.71.32-10,.68a9.38,9.38,0,0,1-1.91,0A1.6,1.6,0,0,1,29.37,74.57Z"/><path class="cls-39" d="M99.68,79.22a14.14,14.14,0,0,0-1.63-2.6c-1.33-1.52-3.29-2.25-4.55-3.82-.12-.16-.35-.19-.53-.28A53.94,53.94,0,0,1,87.85,70a8.58,8.58,0,0,0-2.61-1.24,10.31,10.31,0,0,1-2.92-1.27,24.32,24.32,0,0,0-4.48-.72.69.69,0,0,0-.68.34c-.67.1-1.38-.2-2,.2.41.4,1,.34,1.47.5.74.23,1.61-.08,2.24.56a10.36,10.36,0,0,0,4.24,1.52,4.64,4.64,0,0,1,2.31,1c.63.52,1.2,1.24,2.19,1a.34.34,0,0,1,.41.23c.55,1.38,1.88,1.38,3,1.41a2.72,2.72,0,0,1,2.19.91,1.37,1.37,0,0,0,.63.49A1.73,1.73,0,0,1,95,76.32c.13.22.33.41.56.29.63-.33,1.08,0,1.55.33,1.28.8,1.68,2.15,2.19,3.43a.27.27,0,0,1,.07-.08,2.21,2.21,0,0,0,.34-.56C99.67,79.56,99.67,79.39,99.68,79.22Z"/><path class="cls-40" d="M82.37,17.5h.8c.69,0,1.58-.21.89,1-.24.44.22.63.55.8-.2.84-1.08,1.11-1.52,1.76.77.62.77.87,0,1.38s-1.75,1-2,2.09c-.07.26-.28.57-.68.39-.21-.54.28-.81.46-1.19a1.32,1.32,0,0,1,.53-1.42c.55-.32.43-.67.11-1s-.7-.64-.66-1.19a.33.33,0,0,0-.47-.35c-.48.27-1.31-.13-1.47.6s-.63.93-1.35,1a3.73,3.73,0,0,0-2,1.19,13,13,0,0,0-2.77,2.87,10.22,10.22,0,0,0-1.28,2.61c-.1.46.35.28.56.46-.22.09-.38.18-.55.23a.89.89,0,0,1-1-.12c-.28-.29-.17-.63,0-.94l1.22-2.41a6.55,6.55,0,0,0,1-3.22c-.07-1.08.2-2.11.08-3.17A6.44,6.44,0,0,1,73,23.44C76.09,21.13,78.84,18.7,82.37,17.5Z"/><path class="cls-41" d="M88.84,24a6,6,0,0,0,2.24-1.2c.08.75.63.29,1,.38.25-.08.55-.2.69.14s-.11.52-.34.66A14.74,14.74,0,0,1,90,25.25a19.78,19.78,0,0,0-2.92,1.53,21.3,21.3,0,0,1,3.66-1.61c2.73-1,5.25-2.53,8.22-2.84a1.77,1.77,0,0,1,1.16,0A49.84,49.84,0,0,1,95,24.16c-3.43,1.25-6.75,2.74-10,4.31a30.28,30.28,0,0,0-2.67,1.59c-.28.17-.6.5-.9.27s.08-.57.21-.85.17-.36.26-.54c.21-.4.12-.52-.36-.48a10.83,10.83,0,0,0-3.53,1.27,20.48,20.48,0,0,1-3.59,1.5c-.1-.45.25-.58.53-.71.57-.26,1.09-.62,1.67-.86a17.56,17.56,0,0,0,3.11-1.6c2.26-1.25,4.69-2.12,6.95-3.33a6.37,6.37,0,0,0,1.32-.89A.82.82,0,0,1,88.84,24Z"/><path class="cls-42" d="M47.33,31.63A25.13,25.13,0,0,0,50,35.13c.37-.59-.11-1.13-.07-1.68a.64.64,0,0,1-.09-.48c0-.43,0-.94.53-1s.7.32.87.69a9.88,9.88,0,0,0,.65,1.25c.34.52.65,1-.29,1.26-.5.15-.17.57,0,.84.47,1,.89,1.95,1.36,2.91.24.52.31,1-.55,1-2.29-.93-4.55-1.94-6.83-2.9-.21-.08-.47-.12-.45-.44.27,0,.44-.18.4-.46C45.25,34.2,46.17,32.87,47.33,31.63Z"/><path class="cls-43" d="M57.6,59.06a1.3,1.3,0,0,1,0-1.33,2.81,2.81,0,0,0-.55-3.12,2.37,2.37,0,0,0-1.71-.4c-.34,0-.78,0-.87-.35s.41-.39.66-.55.4-.16.41-.26c.18-1.25,1.14-1,2-1.06,1-.08,1.46-.68,1.21-2a12.34,12.34,0,0,0-1.94-5.28,1.27,1.27,0,0,1,1.66.47,4.44,4.44,0,0,1,1.2,2.27c0,.28,0,.67.39.72s.38-.31.52-.53c.46-.72,1.24-1.16,1.65-1.93.07-.14.3-.12.44,0a5.76,5.76,0,0,1-1.23,2.47,4.89,4.89,0,0,0-.72,3.51c0,.19.15.28.32.35a.22.22,0,0,1-.12.25,1.63,1.63,0,0,0-1.19,1.36,7.12,7.12,0,0,0-.06,3.91A1.92,1.92,0,0,1,57.6,59.06Z"/><path class="cls-44" d="M55.4,44.35c-.41,1-.62,2-1.76,2.55-.5.24-.46,1.06-.5,1.66a1.18,1.18,0,0,1-.39,1.27c-1,0-1.23-.78-1.43-1.44a1.7,1.7,0,0,0-1.56-1.32,3.67,3.67,0,0,1-1.62-.73,35.5,35.5,0,0,1-3.85-1.8h1a6.8,6.8,0,0,1,3.13-.31c.8.05,1.58.27,2.37.37.56.07.85-.12.68-.73.18-1.1.46-2.13,1.75-2.44C54.7,41.88,55.69,43.22,55.4,44.35Z"/><path class="cls-45" d="M62.65,45.75c-.06,0-.18,0-.19,0-.31,1-1.41,1.36-1.8,2.29-.15.34-.41.63-.75.58s-.47-.47-.51-.87a3,3,0,0,0-2.61-3,2.2,2.2,0,0,1-.2-.23,2.59,2.59,0,0,1-.66-2.42S56,42,56,42a21.78,21.78,0,0,1,4,1c.21.23.4.38.72.12s.45-.51.82-.22a2.26,2.26,0,0,1,.34,1.13c0,.79.31,1,1.06.71,2.2-.86,4.38-1.79,6.61-2.58.24-.09.47-.27.75-.13,1.17,0,1.87-1.14,3-1.31a6.43,6.43,0,0,1,1.07-.08,48,48,0,0,1-7.72,3.44C65.3,44.66,64,45.22,62.65,45.75Z"/><path class="cls-46" d="M53.16,41.51c-1,.43-1.08,1.47-1.62,2.21-.88,0-1.26-.43-1.11-1.27a2.36,2.36,0,0,0,.17-.87.29.29,0,0,0-.11-.19c-.45,0-.86.61-1.36.12-.52-.65-1.37-.79-2-1.28-.23-.19-.52-.28-.66-.58-.36-.77-.8-1.38-1.8-1.37-.47,0-.9-.34-.27-.8.4-.28.08-.41,0-.62-.41-.85-1.28-1.11-2-1.59a4.16,4.16,0,0,1-1.34-1,.42.42,0,0,1,.55-.18,34.75,34.75,0,0,0,3.48,2.41c2.28.94,4.56,1.87,6.83,2.83a1.7,1.7,0,0,1,.44.37.3.3,0,0,1,.09.25c-.3.37-.45.69.11,1A1,1,0,0,1,53.16,41.51Z"/><path class="cls-47" d="M37.66,31.42a1.26,1.26,0,0,0-.82-.64c-4.79-3.75-9.41-7.73-14.54-11a11.84,11.84,0,0,0-5.47-2.18A6.79,6.79,0,0,0,12,14.92a.72.72,0,0,1-.54-.21c1.38-.84,2.67-.23,3.9.33a50.87,50.87,0,0,1,7.73,4.32,166.78,166.78,0,0,1,14.37,11.2c.47.41,1.1.67,1.4,1.27a.46.46,0,0,1-.61,0Z"/><path class="cls-48" d="M56,14.45c1.22.9,1.2.89,1.74-.61a13,13,0,0,1,1.62-3.61.56.56,0,0,1,.5.25.71.71,0,0,1,.06.28c-.62,1.5-1.61,2.84-1.8,4.39.42-.75.26-1.91,1.21-2.54.76-.21,1.55.42,2.32-.12.17-.13.28.2.33.39s-.11.54.15.74a.19.19,0,0,0,.09,0c.26-.23.16-1,.74-.69s.3.83.19,1.28-.55.5-.67.86c-.24.75-.52,1.5.19,2.2a.79.79,0,0,1,.16,1,.9.9,0,0,1-1.27,0,5.11,5.11,0,0,0-3.69-.87c-.6-1-1.65-1.6-2-2.73A.3.3,0,0,1,56,14.45Z"/><path class="cls-49" d="M59.81,10.46a.42.42,0,0,1-.42-.23,16.58,16.58,0,0,1,5.47-5.79c2.27-1.54,1.7-1.49,3.38.4a8.64,8.64,0,0,1,2.27,3.38,10.53,10.53,0,0,1,.37,1.21c.11.47.07.93-.59,1a.51.51,0,0,1-.28-.15c-.56-2.08-2.21-3.19-4-4-.93-.42-2,.33-2.78,1S61.51,9,60.62,9.9C60.38,10.13,60.18,10.41,59.81,10.46Z"/><path class="cls-50" d="M52,55.22c-.48-.49-.62-.19-.59.28a6.65,6.65,0,0,1-.44,2.76c-.16.43-.36.56-.9.48a26.81,26.81,0,0,1-3.52-1.15c-.31-.09-.7-.26-.39-.8s-.56-.19-.5-.65c.94.23,1-.59,1.29-1.12a1.16,1.16,0,0,1,.78-.41A10.2,10.2,0,0,0,51,53.75a.79.79,0,0,1,.77,0H52Z"/><path class="cls-51" d="M70.12,10.25c.61.05.66-.34.54-.76a3.91,3.91,0,0,1-.15-1.27,13.65,13.65,0,0,1,1.84,9.5,1.62,1.62,0,0,1-1.58,1A12.37,12.37,0,0,0,65.89,20c-.09,0-.17.09-.27.13-.29.12-.61.22-.8-.11s.08-.57.31-.77a4,4,0,0,1,.77-.46c.29-.15.64-.26.64-.69A4.16,4.16,0,0,0,66.8,17a.53.53,0,0,1,.42-.49c.36-.12.43.19.56.41.17.72.57.85,1.26.61,1.68-.58,1.76-.7,1.81-2.49a7.91,7.91,0,0,0-.76-3.89C69.94,10.88,69.81,10.55,70.12,10.25Z"/><path class="cls-52" d="M105.39,84v0c-.84-.3-1.68-.56-2.54-.79a6.11,6.11,0,0,1-.79-.27h-.14l0,.07c.21.29.54.22.82.27a3.08,3.08,0,0,1,1.47.66c.1.09.23.19.18.34s-.2.16-.34.18c-.32,0-.65-.08-1-.07-1,0-2.07-.48-3.12-.09-.22.61.08,1,.81,1a3.23,3.23,0,0,1,1.2,0,10.62,10.62,0,0,0,1.31.54c.17.06.3.27.52.13a1,1,0,0,0,.15-.46c.05-.22.15-.49.4-.4s0,.33,0,.49-.14.52.23.6c.19,0,.39-.15.42-.31.1-.46.29,0,.42-.07C105.81,85.24,105.29,84.64,105.39,84Z"/><path class="cls-53" d="M45.68,28.22c-.52-1.95-.68-4-1.8-5.77-.36-.56-.17-1.17-.17-1.76,0-.26.24-.38.39-.16.29.42.74.82.69,1.38-.09.82.25,1.16,1,1.57a3.2,3.2,0,0,1,1.48,2.6c0,1.09.65,2,.68,3,0,.29.17.58.19.87.08,1.1-.1,1.22-1.19.85a4.89,4.89,0,0,1-.85-1.38C46,29,45.45,28.74,45.68,28.22Z"/><path class="cls-54" d="M61,52.21v-.13c.67-.26,1.31.09,2,.13a34.18,34.18,0,0,0,6.47-.44,20.19,20.19,0,0,1,4.26-.32,13.28,13.28,0,0,0,3.66-.6c.88-.16,1.77-.34,2.67-.45.39,0,.8-.15,1.14.18v.2A23.55,23.55,0,0,0,75.94,52a.39.39,0,0,1-.41.19c-.21,0-.45,0-.61.19a1.12,1.12,0,0,1-1,.41l-.59,0a4.78,4.78,0,0,0-2.48.36c-1.22.17-2.41.48-3.61.73-1.37.29-2.62-.26-3.9-.58a.49.49,0,0,1-.35-.45c0-.15.16-.36-.22-.21A1.8,1.8,0,0,1,61,52.21Z"/><path class="cls-55" d="M81.19,50.58a55.21,55.21,0,0,0-6.38,1.09,5.66,5.66,0,0,1-2.17,0c-1.06-.19-2.11.3-3.18.1a81.23,81.23,0,0,1,9.88-2.14A96.39,96.39,0,0,1,89.25,49c-.74.48-1.62.33-2.41.56Z"/><path class="cls-56" d="M51.74,53.8A17.3,17.3,0,0,1,46.9,55a1.79,1.79,0,0,1-.52-.25c-.38-.35-.52-.67-1.28-.31s-1.7-.24-2.58-.4c-.22,0-.48-.11-.6.18a.42.42,0,0,0,.13.54c.32.24.65.6.3.89s-.54-.37-.88-.45a1.74,1.74,0,0,0-1-1.82c-.19-.46-.75-.43-1-.79,1,.1,1.77.78,2.78.68.18,0,.41.17.57,0,1-.82,2.17-.63,3.3-.72a13.78,13.78,0,0,0,4,.66A2.26,2.26,0,0,1,51.74,53.8Z"/><path class="cls-57" d="M82.4,67.73a20.14,20.14,0,0,0-5.24-.62c-.07-.24-.58-.06-.47-.48a.57.57,0,0,1,.71-.48c.64.7,1.53.46,2.3.54A27.91,27.91,0,0,1,93.38,71.5,30.55,30.55,0,0,1,99,77.23a1.24,1.24,0,0,1,.12.37c-1-.31-1.4-1.26-2.1-1.89A30.81,30.81,0,0,0,86.41,69,38.94,38.94,0,0,1,82.4,67.73Z"/><path class="cls-58" d="M82.4,67.73a22.81,22.81,0,0,1,8.42,3,33.56,33.56,0,0,1,6.75,5.18c.53.55.85,1.29,1.56,1.68.46.51.38,1.22.65,1.8-.65-.38-.69-1.17-1.15-1.7a17.81,17.81,0,0,0-2.92-2.78A11.78,11.78,0,0,1,93.32,73c-.41-.48-1.27-.65-1.93-1-1.24-.58-2.47-1.15-3.68-1.81a8.57,8.57,0,0,0-3.16-1.36A3.67,3.67,0,0,1,82.4,67.73Z"/><path class="cls-59" d="M10.09,86a8.8,8.8,0,0,0-2.17-.23c-.7,0,0,.19-.55.67a2.18,2.18,0,0,1-.42.33c0,.12,0,.23-.07.35a6.18,6.18,0,0,1-.22,1.2,2.39,2.39,0,0,1-.15.37c.07.53.13,1.06.2,1.6a1.09,1.09,0,0,0,1.09.21c.58-.15-.14-.35.42-.55a.82.82,0,0,0,.63-.68,1.34,1.34,0,0,0,0-.49c-.23-.89-.18-1.64,1-1.93a.57.57,0,0,0,.45-.59A.36.36,0,0,0,10.09,86Z"/><path class="cls-60" d="M66.67,18.12c.39.32.27.5-.14.68s-.94.51-1.4.78c-.14.09-.27.26-.16.42a.28.28,0,0,0,.44,0c1.16-.88,2.66-.87,3.9-1.52.15-.07.35-.16.47-.11a2.45,2.45,0,0,0,2.57-.69l.14.62-.59.38a13.33,13.33,0,0,1-5.59,2.42.86.86,0,0,0-.64.55c-.21.43-.53.46-.91.25a.7.7,0,0,1-.22-.2A5,5,0,0,0,63,20.07c-1-.77-.94-1.11.19-1.63.73,0,.91.46,1,1.07.6-.05.43-.71.8-.9l.26-.1C65.77,18.54,66.13,18,66.67,18.12Z"/><path class="cls-61" d="M86.64,36.29A10.56,10.56,0,0,1,89.86,34a24.05,24.05,0,0,0,4-2.94c1.7-1.45,3.63-2.55,5.31-4,.58-.5,1.45-.46,2-1.05a9.45,9.45,0,0,1-2.7,2.79,95,95,0,0,1-11.54,7.45A1.24,1.24,0,0,1,86.64,36.29Z"/><path class="cls-62" d="M100.16,22.37a17.76,17.76,0,0,0-4.92,1.23c-2.87,1.17-5.74,2.37-8.61,3.56,0,0-.12,0-.42,0a15.69,15.69,0,0,1,3.22-1.89c1-.36,1.87-1,2.85-1.47.18-.08.39-.2.3-.44s-.35-.13-.53-.18a30.66,30.66,0,0,1,9.77-1,1.06,1.06,0,0,1,.35.18Z"/><path class="cls-63" d="M51.13,69.33a15.12,15.12,0,0,1-4.29-1.46c-.7-.36-.74-1.08-.74-1.77a10.55,10.55,0,0,1,4.63,1.47c.41-.06,1.44.4.58-.7a.43.43,0,0,1,.09-.54c.91-.33,1.23-.17,1.41.7,0,.23.06.46.09.69.13,1.06,0,1.29-1.09,1.47C51.59,69.23,51.36,69.3,51.13,69.33Z"/><path class="cls-64" d="M45.68,28.22l.39,1.22a46.21,46.21,0,0,1-6.6-14.28A27.53,27.53,0,0,1,38.4,9.68l.24,0a11.61,11.61,0,0,1,1.06,2.88c.39,1.68.83,3.35,1.35,5a5.7,5.7,0,0,0,.61,2A20.91,20.91,0,0,0,43,22.93C43.8,24.74,44.94,26.38,45.68,28.22Z"/><path class="cls-65" d="M11.44,14.71c2.1-.47,3.43,1.06,5,1.93a.92.92,0,0,1,.41.87c.15.2.08.47-.1.47-.63,0-.46.42-.51.75-1.07-.3-1.76-1.25-2.84-1.57A2.32,2.32,0,0,1,11.71,16a.24.24,0,0,0-.33-.14c-.28.17-.11.49-.19.73A1.41,1.41,0,0,1,11.44,14.71Z"/><path class="cls-66" d="M9.64,88.12a2.71,2.71,0,0,1,0-.29c.26-.39.89-.25,1.13-.7-.66-.55-1.37.81-1.83-.07a2.57,2.57,0,0,1,.4-2.63c2.28-2.08,4.94-1.89,6.59.59.19.23.24.55,0,.71-1.46,1.12-2.28,2.77-3.43,4.14C11.36,89.62,10.65,88.62,9.64,88.12Z"/><path class="cls-67" d="M86.84,49.56c.72-.54,1.65-.19,2.41-.56a70.31,70.31,0,0,1,11.51-.35A7.1,7.1,0,0,1,106,50.79a19.19,19.19,0,0,0-4.37-1.52,1.86,1.86,0,0,0-1.5.17c-.66.4-1.38.73-2-.22a.74.74,0,0,0-.83-.23,11.3,11.3,0,0,1-2.9.18c-.23,0-.53-.09-.64.17-.21.47-.41.38-.74.1a2,2,0,0,0-1.78-.32A20.52,20.52,0,0,1,86.84,49.56Z"/><path class="cls-68" d="M108.69,87.81c-.26.56-.56-.12-.83,0s-.57,0-.75-.24A11.16,11.16,0,0,1,106,86.23a1.59,1.59,0,0,1,.73-.72c.07,0,.17,0,.22-.08.83-.82,1-.85,1.63-.27.86.76.92,1.27.22,2.12C108.65,87.47,108.7,87.63,108.69,87.81Z"/><path class="cls-69" d="M18.94,85.31c-.57.47-1.3.8-1.49,1.59A25.28,25.28,0,0,0,15,88.18c.2.27.63.37.56.79-.5.46-1,.1-1.46,0-.48-.37-1.14-.57-1.32-1.23,0-.35.32-.5.63-.62a5.54,5.54,0,0,0,3-2.47c.25-.44.5-1,1.23-.92C17.89,84.36,18.58,84.73,18.94,85.31Z"/><path class="cls-70" d="M17.65,83.69a2.68,2.68,0,0,0-1,1.09,5.18,5.18,0,0,1-3.31,2.59c-.14,0-.24.23-.36.34-.39.09-.74.09-.86-.38.4-1.29,1.63-2,2.38-3.06a1.16,1.16,0,0,0,1-.43A1.54,1.54,0,0,1,17.65,83.69Z"/><path class="cls-71" d="M106.73,85.51c0,.41-.42.48-.67.67a.63.63,0,0,0,.2.92c.17.12.38.3.26.54s-.38.15-.52.09a3.92,3.92,0,0,0-1.68-.34c-.13,0-.19-.18-.23-.31,0-.38-.34-.68-.32-1.08s-.28-1.11.57-1.16c.18,0,.4-.07.5.14s-.08.34-.16.51-.75.36-.07.65c.23-.07.39-.27.64-.28.29-.32,0-.62,0-.93s-.19-.65.14-.9A6.1,6.1,0,0,0,106.73,85.51Z"/><path class="cls-72" d="M48.14,46.34c.89.25,1.79.51,2.69.75.33.08.44.26.53.6a2.53,2.53,0,0,0,1.37,2.07.55.55,0,0,1,0,.81.48.48,0,0,0-.2.43C51.11,49.41,49.41,48.07,48.14,46.34Z"/><path class="cls-73" d="M51.74,13.47a.66.66,0,0,1,.66-.82,3.23,3.23,0,0,1,1.38.4c.51.22.72.53.31,1-.55.67-.19,1.63-.73,2.3a.52.52,0,0,1-.71-.12A4.53,4.53,0,0,1,51.74,13.47Z"/><path class="cls-48" d="M53.36,16.3c.19-.84-.2-1.83.68-2.52.36-.29-.19-.48-.26-.73A3.36,3.36,0,0,1,56,14.45l-.07.06c-.63.1-.82.79-1.36,1s-.58.67-.86,1c-.1.12-.22.26-.4.11S53.26,16.42,53.36,16.3Z"/><path class="cls-74" d="M49.1,61.09c.8-.27,1.69.51,2.45-.22.17,0,.25,0,.19.19-.48.66.14,1.6-.56,2.21A3.49,3.49,0,0,1,50.12,62,1.56,1.56,0,0,0,49.1,61.09Z"/><path class="cls-75" d="M20.05,84.43a5.2,5.2,0,0,1-2.18.2,3.64,3.64,0,0,0,.43-.54,1.66,1.66,0,0,1,2.4-.84C20.47,83.64,20,83.91,20.05,84.43Z"/><path class="cls-76" d="M38.23,31.84h.61a13.65,13.65,0,0,1,2.77,2.25l-.55.18C40.16,33.39,39.06,32.77,38.23,31.84Z"/><path class="cls-77" d="M51.35,66.52c0,.09,0,.23.09.27.27.21,1.05.1.53.79-.37.49-.83.49-1.24,0,.53-.53.29-1.29.6-1.89l.05.24A.48.48,0,0,1,51.35,66.52Z"/><path class="cls-12" d="M48.57,93.73a.83.83,0,0,1-.84.44,29.49,29.49,0,0,1-4.41-.23c-2.34-.48-4.71,0-7-.39-1.34-.2-2.7-.16-4.05-.29A1.67,1.67,0,0,1,31,92.52c.36-.28.73-.09,1,0a4.19,4.19,0,0,0,4-.63,14.21,14.21,0,0,1,1.85-1,5.44,5.44,0,0,1,1.78-.37,1.6,1.6,0,0,1,.85.26c.13.26,0,.4-.23.46-1.19.33-2.05,1.47-3.44,1.33a1.5,1.5,0,0,1,1.22.2c.58.43.75-.42,1.19-.42a1.93,1.93,0,0,0,1.16-.47c.45-.33.44-.81.6-1.23a1.1,1.1,0,0,1,.64-.44c.21-.08.49-.13.42-.45a.59.59,0,0,0-.51-.41,1.84,1.84,0,0,0-1.78.84,1,1,0,0,1-1.29,0c-.1-.09-.18-.32-.12-.36.88-.59-.39-1.43.23-2a1.37,1.37,0,0,1,1.14-.26A1.73,1.73,0,0,0,41,87.43a1.69,1.69,0,0,1,1.67,1c.6,1.23,1.77,2,2.47,3.14a1,1,0,0,0,1.36.25c1-.47,1.93-1.18,3-1.59.21-.09.38-.29.64-.22A1.28,1.28,0,0,1,49,91.67c-.94.18-1.32,1-2,1.44-.31.2-.19.34.61.46a1.51,1.51,0,0,1,.7,0A.46.46,0,0,1,48.57,93.73Z"/><path class="cls-78" d="M68.5,93.56a1.86,1.86,0,0,1-1.57.75q-5.48,0-10.93,0c-.27,0-1,.29-.61-.54.2-.63-.14-.94-.68-1.11A5.83,5.83,0,0,0,52,92.36a2,2,0,0,1-1.37,0c-.2-.65.24-1.11.58-1.49,1.23-1.41,2.59-2.71,3.95-4a1.09,1.09,0,0,1,.54-.26c1.17-.1,1.12.94,1.48,1.59a5.2,5.2,0,0,1-.34,2.43A3.91,3.91,0,0,0,56.52,92c-.08.53-.24,1.12.35,1.46a1.61,1.61,0,0,0,1.81,0,1.5,1.5,0,0,1,1.58-.22,7.29,7.29,0,0,0,2.08.33,1.62,1.62,0,0,0,1.88-1.24c.27-.75.66-.93,1.49-.72a13.61,13.61,0,0,1,3,1.32A.45.45,0,0,1,68.5,93.56Z"/><path class="cls-79" d="M102.45,89a1.15,1.15,0,0,0,1.32.5c.25.35.25.39,0,.72a9.46,9.46,0,0,1-1.43.93H102a.18.18,0,0,1-.21,0c-1.07-.71-2.31-.25-3.48-.66.08.45.4.4.58.54s.6.17.63.56a18,18,0,0,1-4.39.55.25.25,0,0,1-.3,0,.25.25,0,0,1,.11-.4c.84-.35.24-.64,0-1s-.45-.28-.64-.48c.17-.58.64-.33,1-.36.21,0,.42.12.63.13a.6.6,0,0,0,.57-.4c.11-.26-.13-.33-.28-.43a1.19,1.19,0,0,1-.56-.57A3.71,3.71,0,0,0,95,87.19a.5.5,0,0,1,.18-.43c.91-.51,1-.5,1.64.23.36.4.8.72,1.14,1.15.31.23.54.61,1.07.59a2,2,0,0,0-.69-.82c-.29-.35-1.11-.25-.88-1a1.57,1.57,0,0,1,1.17.24,5.42,5.42,0,0,0,1.47,1.23c.26.2.51.07.77,0A1.35,1.35,0,0,1,102.45,89Z"/><path class="cls-80" d="M94.71,89.89c.87,0,1.21.73,1.67,1.24s0,.56-.41.59c-.24,0-.7,0-.24.42-1.3.79-2.17,0-3-.84l-.1-.09c0-.31,0-.71-.52-.57a1.82,1.82,0,0,1-.77,0,1.37,1.37,0,0,1-.29-.07,18,18,0,0,1-5.51-1.4c-.47-.87-.34-1.13.81-1.58a18.85,18.85,0,0,1,4.18.07,3.14,3.14,0,0,1,2.69,1.49,1,1,0,0,0,.54.43Q94.22,89.77,94.71,89.89Z"/><path class="cls-81" d="M72.32,92.11c-.57.27-1-.2-1.54-.23A2.91,2.91,0,0,0,69.5,92l-.09-.11a1.13,1.13,0,0,0-.86-.75c-.27-.08-.51-.22-.54-.52s.25-.46.5-.52c.84-.21,1.33-1,2.14-1.25.85.14.86.79.83,1.49a3.8,3.8,0,0,0,2.09-1.38c.28-.39.56-.89,1.2-.67.5.53.22,1.26.44,1.86a.92.92,0,0,1-.82.88C73.41,90.84,73,91.73,72.32,92.11Z"/><path class="cls-82" d="M50.54,92.28a7.93,7.93,0,0,1,4.65.24c.71.33.87.69.2,1.22-.66-.63-1.32,0-2,.05a20.7,20.7,0,0,1-4.85-.06h-.12C48.85,92.62,49.56,92.12,50.54,92.28Z"/><path class="cls-83" d="M14.24,88.71a1.71,1.71,0,0,0,1.27.19.87.87,0,0,1,1.07-.2,1.48,1.48,0,0,1-1.06,1.63,1.88,1.88,0,0,0-1.48.34c-.81.5-1.68,1.13-2.73.42a5.38,5.38,0,0,0-3.05-.76c0-.13,0-.26,0-.39l.43-.62.08-.06c1.55.58,2.93-.21,4.37-.47C13.48,88.72,13.87,88.81,14.24,88.71Z"/><path class="cls-84" d="M37.84,91.14c-1.13.61-2.24,1.25-3.38,1.83-.82.42-1.63,0-2.44-.15a6.7,6.7,0,0,1-1.06-.3.47.47,0,0,1-.17,0c-.64,0-1.1-.52-1.72-.56-.46-.16-1,0-1.36-.52a.29.29,0,0,1,.17-.24c1.05-.3,2.13.15,3.19-.1a14.64,14.64,0,0,1,1.5-.17c1.44-.2,1.7.09,1.3,1.75a9.71,9.71,0,0,1,2.45-1.44A1.38,1.38,0,0,1,37.74,91Z"/><path class="cls-85" d="M102.29,91.14a1.72,1.72,0,0,1,.77-.69c.37-.18.86-.36.71-1,0-.3.2-.4.43-.27a1,1,0,0,0,.93-.1c.28-.12.27-.1.53.11.79.68.33,1-.25,1.28A13.93,13.93,0,0,1,102.29,91.14Z"/><path class="cls-86" d="M92.72,91.3c-.23,1.64-.63,1.83-2,1a13.42,13.42,0,0,1-2.34-.7c.21-.87,1-1,1.66-1.16a2,2,0,0,1,1.26.09h0c.5.21,1.2.07,1.37.82Z"/><path class="cls-87" d="M88.48,91.69c.91-.47,1.5.26,2.21.58-1.46.79-3.08.69-4.66.84a2.68,2.68,0,0,1,1.79-1.68C88.09,91.37,88.28,91.54,88.48,91.69Z"/><path class="cls-88" d="M30,91.43a3.86,3.86,0,0,1,2,.92c-.17.33-.15.77-.74.8a65.43,65.43,0,0,1-7.54-.39,1.45,1.45,0,0,1-1.06-.58,2.32,2.32,0,0,0,1.6-.59.34.34,0,0,1,.32.08,9.12,9.12,0,0,0,4.5.59C29.6,92.23,29.68,91.71,30,91.43Z"/><path class="cls-89" d="M14.05,91c.94-.76,1.39-.71,2.18.27a1.72,1.72,0,0,0,1.63.74,2.28,2.28,0,0,1,1.62.37,24.12,24.12,0,0,1-4.57-.4,1,1,0,0,1-.87-.59A.26.26,0,0,1,14.05,91Z"/><path class="cls-90" d="M87.82,91.53A12.27,12.27,0,0,0,86,93.11l-.36.42c-.2-.45-1,.17-1-.6a.6.6,0,0,1-.11-.64,2.52,2.52,0,0,1,2.43-1.24C87.3,91.06,87.68,91.08,87.82,91.53Z"/><path class="cls-91" d="M15.1,91.34c0,.13,0,.26,0,.39a14.13,14.13,0,0,1-4.1-.38.51.51,0,0,1,.46-.42c1.08.67,1.86,0,2.6-.57.54-.39,1-.75,1.48,0C15.37,90.66,15.06,90.94,15.1,91.34Z"/><path class="cls-92" d="M73.94,93.12c0,.3,0,.65-.49.58s-.3-.43-.33-.71.48-.94-.41-.87h-.39c.28-.81,1-1.11,1.68-1.51.26-.15.31.14.35.33A4.25,4.25,0,0,1,73.94,93.12Z"/><path class="cls-93" d="M11.44,90.93a.79.79,0,0,1-.46.42c-.66-.13-1.31-.29-2-.4-.41-.06-.8-.08-.74-.62.31-.41.66-.57,1.13-.2S11,90.17,11.44,90.93Z"/><path class="cls-94" d="M99.48,91.61c-.18-.22-.65,0-.67-.49s.24-.5.48-.43a14.79,14.79,0,0,1,2.48.43l.19,0A4.84,4.84,0,0,1,99.48,91.61Z"/><path class="cls-95" d="M72.71,92.31c-.09.41.41.8,0,1.22-.54-.32-1.07.15-1.61,0-.25-.06-.63.06-.67-.26s.37-.41.63-.51C71.62,92.58,72.32,93,72.71,92.31Z"/><path class="cls-96" d="M68.5,93.56c.06-.21.12-.43.17-.64a.73.73,0,0,1,.13-.68c.18-.22.37-.45.71-.4a.14.14,0,0,1,0,.11c-.55,1.28-.66,1.21,1,2.16-.65.5-.65.5-1.1-.09C69.16,93.73,68.78,93.75,68.5,93.56Z"/><path class="cls-97" d="M102.45,89c-.62-.34-1.21-.73-2-.27-.39.24-.47-.25-.69-.4-.48-.32-1.09-.5-1.28-1.15a1.38,1.38,0,0,1,.86-.81c.35-.12.69-.29,1.06-.08s-.18.72.22,1a10.41,10.41,0,0,0,1.81,1c.28.1.34-.08.3-.31a10.16,10.16,0,0,1,.14-1.56c0-.33.13-.59.5-.63l.35.3c.22.3.52.57.46,1-.15.28,0,.4.25.47a2.64,2.64,0,0,1,1.08.69c-.45.7-1.2.73-1.9.82A9.77,9.77,0,0,1,102.45,89Z"/><path class="cls-98" d="M105.56,88.16c-.54,0-.87-.47-1.32-.7-.21-.11-.17-.3,0-.46,0,.22.14.41.37.29.46-.23.82-.31,1.13.25.13.22.44.1.67.1.09-.56-1.66-.63-.34-1.46a5.76,5.76,0,0,1,1.09,1.17c.18.22.36.49.71.48-.13.57-.44.27-.74.18C106.59,87.84,106,87.49,105.56,88.16Z"/><path class="cls-99" d="M67.47,57.23a2.9,2.9,0,0,0,1.83-.66,3.1,3.1,0,0,1,2.47-.49.65.65,0,0,1,.54.83c-.17.78-.32,1.59-1.33,1.77-.33,0-.69.23-.5.68s.47.31.73.09.58-.08.76.17c.42.59.85.3,1.3.06s.52-.38.24-.78a1.62,1.62,0,0,1-.33-.83c0-.52-.56-1.11.76-1.22a18.94,18.94,0,0,0,3.49-.39,2,2,0,0,1,1,0c1.42.47,2.77,0,4.16-.13a4.32,4.32,0,0,1,3,1.13,9.47,9.47,0,0,1-2.1-.65.72.72,0,0,0-.91.12,2.08,2.08,0,0,1-2.35.35c-1.53-.78-3.08-.23-4.61-.18-.73,0-1.15.81-1.24,1.41s.54,1,1,1.44a.25.25,0,0,0,.26,0c.15-.14.07-.3,0-.43-.42-.49-.15-.6.33-.65a3.93,3.93,0,0,1,1.44.37c.71.21.65.64.48,1.18a.48.48,0,0,0,.12.35c.29.37.79.76.51,1.21a14.07,14.07,0,0,1-1.55,1.82s-.16.08-.19,0c-.81-.66-1.82-.28-2.7-.55-.27-.09-.32-.08-.54.14a3.45,3.45,0,0,1-3,1.28,15.8,15.8,0,0,1-3.57-.22,3,3,0,0,0-2.48.51c-.34.22-.58.45-.5.89a.5.5,0,0,1-.25.6,12.3,12.3,0,0,1-3.48.07,5.68,5.68,0,0,1-1.75-.85c-.34-.21-.64-.47-.57-.94a7.29,7.29,0,0,1,2.42-1.11c.94-.34,1.46-1.15,2.22-1.68.2-.14.15-.38,0-.63-.4-.88-.3-1.15.58-1.5a3.18,3.18,0,0,0,1.5-1.13C65.56,58.15,66.23,57.14,67.47,57.23Z"/><path class="cls-100" d="M63.85,66.3c-.45-.74-.31-1.18.52-1.6a3.75,3.75,0,0,1,2.76-.47,3.48,3.48,0,0,0,2.26.1c.38-.17.75.21,1.11.36.69.73,1.76.58,2.52,1.06s1.76.17,2.71.49a1.77,1.77,0,0,1-1.4.47c-.43.38-1,.11-1.49.23a3.88,3.88,0,0,1,2.1.37h.2c1.1,0,2.16.46,3.27.43.36,0,.53.23.56.58a.8.8,0,0,1-.84.12,18.47,18.47,0,0,0-3.56-.16,9.19,9.19,0,0,1-4.12-1,8.66,8.66,0,0,0-2.78-.11,11.63,11.63,0,0,1-2.88-.4A1.56,1.56,0,0,1,63.85,66.3Z"/><path class="cls-39" d="M74.94,67.31c-.9,0-1.75-.32-2.66-.28.63-.54,1.37-.22,2-.32Z"/><path class="cls-101" d="M49.13,41.51c.29,0,.61.07.84-.19s.47-.6.8-.31a.88.88,0,0,1,0,1.11c-.51.9-.12,1.34.72,1.6a.63.63,0,0,1,.32.92c-.18.37-.56.33-.88.28-.72-.1-1.44-.23-2.14-.39-1.19-.25-2.37.12-3.55,0-.31-.49-.93-.82-.51-1.63.15-.28-.42-.69-.87-.8-.85-.21-1.22-1-1.8-1.52-.3-.26,0-.42.23-.46a3.15,3.15,0,0,1,2.59.67c.54.46,1.41.51,1.7,1.38.12.36.66.09.92-.2A1.38,1.38,0,0,1,49.13,41.51Z"/><path class="cls-102" d="M85.22,55.83c-1.56-.18-3-.84-4.63-.81a28.53,28.53,0,0,0-4.71-.21.57.57,0,0,1-.53-.2c-.16-.34-.21-.5.17-.87a2.33,2.33,0,0,1,2.56-.46c.2,0,.41.17.59,0,1.62-1,3.29-.2,4.94-.15a8.66,8.66,0,0,0,5.14-.92,2.23,2.23,0,0,0,.72-.68c.33-.54.82-.22,1.14-.06s.86.43.44,1c-.14.2-.27.44,0,.61a.46.46,0,0,0,.62-.14,3.67,3.67,0,0,1,.61-.51c.27-.19.47-.68.91-.27.14.12.48.21.38.4-.2.36-.47.88-.78.93a1.64,1.64,0,0,0-1.41,1.32c-.18.54-1,.46-1.44.76s-1.15.35-1.6.8a.46.46,0,0,1-.77-.11c-.19-.31.15-.47.36-.61a10.63,10.63,0,0,0,1.38-1C88,55.13,86.74,56.09,85.22,55.83Z"/><path class="cls-103" d="M70.9,53a2.18,2.18,0,0,1,2.42-.19,2.24,2.24,0,0,1-1,.9c-.28.14-.68.25-.67.62s.53.2.67.49a9,9,0,0,1-3.63.6c-.26-.34,0-.56.2-.77s.86-.45.82-1.19C69.69,53,70.52,53.24,70.9,53Z"/><path class="cls-103" d="M75.35,54.61a27.4,27.4,0,0,1,4.7.2c.19,0,.4,0,.54.21a2.22,2.22,0,0,1-1.93,0,2.57,2.57,0,0,0-1.53,0,37.48,37.48,0,0,1-4.37,0c-.15,0-.3-.12-.45-.18A4.6,4.6,0,0,1,75.35,54.61Z"/><path class="cls-102" d="M73.91,52.78a1.37,1.37,0,0,1,1-.41c.26.24.35.59,0,.74S74.08,53.42,73.91,52.78Z"/><path class="cls-102" d="M75.53,52.18a.42.42,0,0,1,.41-.19c.27,0,.54.09.54.44a.37.37,0,0,1-.32.33C75.73,52.82,75.58,52.55,75.53,52.18Z"/><path class="cls-104" d="M64.65,21.75c.34,0,.78.39.86-.35,0-.41.4-.47.86-.56a11.15,11.15,0,0,0,4.21-1.51,2.24,2.24,0,0,1,1.32-.61,10.17,10.17,0,0,1-2.69,2c-.75.44-1.36,1.13-2.38,1.12-.48,0-.38.6-.22,1A21.38,21.38,0,0,1,68,26.91c.08.5.08,1,.11,1.49a12,12,0,0,1,.28,2.38c0,1.21.85,1.72,2,1.27.28-.11.54-.26.83-.37.53-.19.77,0,.73.56a7.64,7.64,0,0,1-2.83,1.16,1.16,1.16,0,0,1-1.66-.73,14.81,14.81,0,0,1-.9,3.94c-.1.29.07.44.35.47-.2.72-1,1.06-1.22,1.74A11.32,11.32,0,0,1,63,41.62c-.49.46-1,.87-1.56,1.3-.24.2-.47.43-.72.62s-.59.29-.68-.22c-.17-.22-.06-.34.13-.47A18.05,18.05,0,0,0,65,37.44a2.47,2.47,0,0,0,.41-1.23c0-.54,0-1-.75-1s-.58-.42-.38-.85a2.69,2.69,0,0,1,.83-.85,1.66,1.66,0,0,0,.75-2,.92.92,0,0,1,0-.69,2.9,2.9,0,0,0-.32-2.68,1.79,1.79,0,0,0-.92-1,2,2,0,0,1-1.16-1.94.87.87,0,0,1,.47-.93.82.82,0,0,1,1,.11c.15.16.33.42.59.22s.07-.43,0-.65A6.83,6.83,0,0,0,65,22.86C64.78,22.52,64.49,22.2,64.65,21.75Z"/><path class="cls-105" d="M71.91,32.24c-.31-.77-.82-.29-1.13-.09a1.8,1.8,0,0,1-1.88.19,1.2,1.2,0,0,1-.83-1.22c0-.91,0-1.81,0-2.72.07.11.18.22.19.34.07.82.44.94,1.12.54a5,5,0,0,1,.89-.26c-.19.26-.29.38-.38.5a1.37,1.37,0,0,0-.35,1.3c.06.18.36.24.4.13.18-.55,1.3-.25,1-1.16-.08-.29.1-.41.31-.34.49.17.64-.22.89-.51l.19.23c.25.36.12,1.28.56,1.08s1.37-.26,1.4-1.15c0-.29.27-.63.47-.59.9.19,1.07-.63,1.53-1a3.43,3.43,0,0,1,1-.66c1.3-.5,1.54-.94,1.51-2.39,0-.38.39-.83.7-.5.59.62.85,0,1.24-.16-.14.4-.27.8-.41,1.21a4.87,4.87,0,0,1-1.88,2c-.7.43-1.08,1.19-1.81,1.57-.26.14-.17.32,0,.49s.17.54-.13.74c-.62.65-1.63.69-2.21,1.41Z"/><path class="cls-106" d="M53.36,16.3c.07.41.19.25.28,0,.19-.46.29-1,.93-1A2.42,2.42,0,0,0,56,18.07c.12.22,0,.37-.14.51a1,1,0,0,1-.27.11c-1.16.59-1.91-.18-2.69-.83a4.15,4.15,0,0,1-1-1.95,5.83,5.83,0,0,0-2.53-3,2.31,2.31,0,0,0-2,.41.73.73,0,0,0,.45,1.16,10.49,10.49,0,0,0,1.49.22,1.68,1.68,0,0,1,1.47,2.4c-.1.29-.22.56-.32.85s-.15.57.14.72c.72.37,1.15,1.15,1.95,1.39.18.19.08.36,0,.54-.3.28-.43.77-1,.77a1.55,1.55,0,0,1-1.47-1.09,1.23,1.23,0,0,0-1.12-1c-.56-.05-.77-.57-1-1a1,1,0,0,1,.51-.27c.56-.17.66-.51.34-1a5.22,5.22,0,0,1-.61-1c-.08-.19-.17-.4-.42-.33a.51.51,0,0,0-.33.46,1.85,1.85,0,0,0,.22,1.34c.15.24.42.45.29.8a2.11,2.11,0,0,1-2.06-1,7.06,7.06,0,0,0-.93-1,1.29,1.29,0,0,1-.37-1.46c.69-1.63.5-3.32.48-5,0-.07-.1-.15-.27-.38.13,2-1.52,2.94-2.31,4.33-.26.46-.65.13-1,.1a4.19,4.19,0,0,1-.31-2.15,19.89,19.89,0,0,1,.44-7.37c.06-.24,0-.64.39-.6s.25.41.29.67a5.23,5.23,0,0,0,1,2.14c.13.19.36.36.6.17s0-.37-.06-.54a13.42,13.42,0,0,1-1.39-2.88c0-.21-.3-.44,0-.64s.44-.05.66,0a3.13,3.13,0,0,1,2.09,2.5c.24,1.55,1.26,2.64,1.95,3.9A6.84,6.84,0,0,0,49,11.3c1,.67,1.79,1.5,2.74,2.17.26.72.51,1.44.78,2.15C52.67,16,52.82,16.39,53.36,16.3Z"/><path class="cls-41" d="M51.55,21.35c.29-.25.41-.66.8-.81.08-.06.17-.1.25-.17s.5-.28.71,0,0,.45-.15.63a9.7,9.7,0,0,0-1.61,3.85c0,.33-.23.7,0,1s.59-.12.87-.26A2.35,2.35,0,0,1,54,25.47a2.24,2.24,0,0,0,2.06-.37c.63-.53,1.14-.24,1.4.65a2.19,2.19,0,0,1-1,1c-.83.5-.94.89-.46,1.72.2.34.51.67.26,1.1s-.75.3-1.17.23-.75.14-.62.67c0,.13,0,.27.08.4.3,1.35.3,1.37-1.09,1.5-.41,0-.48.22-.35.51A3.77,3.77,0,0,1,53,35.83a3.16,3.16,0,0,0,.58,2.94c.25.35.54.68.78,1A.79.79,0,0,1,54.2,41a.88.88,0,0,1-1.27-.07,1.71,1.71,0,0,1-.58-1v-.21c.6.05.6-.22.37-.66-.51-1-1.06-2-1.47-3.05-.13-.33-1.14-1.37.48-1.15.43.06.41-.25.17-.5A5.89,5.89,0,0,1,51,32.77c-.14-.29-.14-.75-.58-.69s-.47.5-.5.87a4.13,4.13,0,0,0,0,.5c-.39-.48-.19-1-.18-1.55s-.14-1-.77-1.24c-.18-.05-.42-.08-.41-.35S48.81,30,49,30c.5,0,.59-.21.62-.75a29.82,29.82,0,0,1,.72-5.63C50.57,22.78,51.3,22.2,51.55,21.35Z"/><path class="cls-56" d="M39.44,52.61a5.72,5.72,0,0,1-2.17-.67.71.71,0,0,0-.67-.11c-.69.26-1.05-.15-1.39-.64C36.66,51.55,38.21,51.58,39.44,52.61Z"/><path class="cls-107" d="M65.47,38.69a4.62,4.62,0,0,1,1.4-1.61,6.66,6.66,0,0,0,2.67-.7c1.77-.59,3.59-1.05,5.33-1.7,1.46-.54,2.78-1.39,4.25-2,2.48-.95,4.9-2,7.31-3.17a14.17,14.17,0,0,1,2.42-1.16c-.19.4-.39.88,0,1.22.78.76.09,1.22-.34,1.63a1.65,1.65,0,0,1-2.1-.37c-.34-.57-.61-.58-.88,0a.8.8,0,0,1-.86.54c-.27,0-.52,0-.63.35s-.3.52-.66.21c-.18-.15-.27,0-.39.15a7.22,7.22,0,0,1-4,1.7,1.77,1.77,0,0,0-.85.26,12.45,12.45,0,0,1-5.35,2.07.88.88,0,0,0-.62.3A12.25,12.25,0,0,1,68.35,38a5.25,5.25,0,0,0-2,.71A.69.69,0,0,1,65.47,38.69Z"/><path class="cls-108" d="M51.35,66.52l0-.6c.5-.53.34-1.19.37-1.81a4.48,4.48,0,0,1,0-.9c.12-.48.42-.92.94-.88s.43.58.45,1a2.29,2.29,0,0,1-.23,1.26,1.7,1.7,0,0,0,0,1.46c.13.36.21.77.71.63s.76-.29.76-.8,0-.81,0-1.21a2.28,2.28,0,0,1,.36-1.43,1.71,1.71,0,0,0,.3-1.69,1.41,1.41,0,0,1,.28-1.23c.15-.24.24,0,.27.17a17.07,17.07,0,0,0,.25,2,3.08,3.08,0,0,0,.24,1.07,1.93,1.93,0,0,1,0,1.66c-.44.86-.4,1.91-1.11,2.67-.27.29,0,.64.12.94a3.57,3.57,0,0,1,.47,3.43,1.11,1.11,0,0,0,0,.7,2.39,2.39,0,0,1-1,2.53.47.47,0,0,1-.46-.07,10.89,10.89,0,0,1-1.24.35c-.58.1-1.16.15-1.22-.71,0-.31-.27-.43-.56-.46V74c.22-.67-.22-1.29-.13-2a3.44,3.44,0,0,1,.31-1.45V69.33c0-.25,0-.47.42-.45,1.21,0,1.21,0,1-1.27a2.61,2.61,0,0,1,0-.4C52.57,66.26,52.12,66.12,51.35,66.52Z"/><path class="cls-29" d="M51.13,70.55c-.09,1.14.23,2.3-.18,3.42l-.06-.39a.66.66,0,0,0-.49.5c-.31.9-1.1,1.26-1.7.78a12.39,12.39,0,0,0-2.48-1.22A11.52,11.52,0,0,1,43.62,72a1.92,1.92,0,0,0-1.08-.46c-.29,0-1,.32-.61-.59.11-.22-.27-.19-.44-.09-.45.28-.9.63-.76-.37.05-.28-.27-.34-.47-.44a1.63,1.63,0,0,1-.82-.71c.48,0,.52-.77.77-.63.79.42,1.72.47,2.46,1a4.71,4.71,0,0,0,2.71,1,1.43,1.43,0,0,1,1.19.59,1.75,1.75,0,0,0,2.57.12C49.77,70.94,50.59,71.11,51.13,70.55Z"/><path class="cls-109" d="M22,87.28a2.82,2.82,0,0,0-.48-1.62c.43-1,1.49-.94,2.22-1.09,1.5-.32,2.92-.84,4.4-1.18a4.1,4.1,0,0,1,2.06.06,10.25,10.25,0,0,0,1.7-.56A5.5,5.5,0,0,1,34.6,83a4.43,4.43,0,0,1,.45.2c.87.29,1.08.16,1.17-.71h.39c.58.44,1.39,0,1.94.53.58-.64,1.17-.46,1.81-.07.16.09.3-.23.29-.43-.09-1,.6-1.6,1-2.32.19-.32.44-1,1.05-.48s1.23,1,.82,1.62A2.73,2.73,0,0,0,43.28,83c-.11.88-.93.91-1.48,1a1.8,1.8,0,0,0-1.38,1,2.64,2.64,0,0,0-1.8-.24,8.37,8.37,0,0,1-3.19-.1,1.59,1.59,0,0,0-.89-.05,41.56,41.56,0,0,1-6,1c-.4.06-.8.1-1,.53a4.56,4.56,0,0,1-.51.73c-.55.46-1,.26-1.48-.17s-.79-.47-1.2,0c-.13.14-.39.37-.48.28C23.13,86.22,22.59,87.09,22,87.28Z"/><path class="cls-110" d="M36.22,82.44c0,.22.2.34.28.51s.32.55-.29.54a11.92,11.92,0,0,1-1.82-.31c-.84-.16-1.75-.66-2.66.1a1.22,1.22,0,0,1-1.56.17,2.41,2.41,0,0,1,2.47-.87C33.82,82.85,35,82.28,36.22,82.44Z"/><path class="cls-111" d="M35.9,79.19h.62a.45.45,0,0,1,.5.49c0,.36-.3.46-.55.45-.63,0-1.25-.08-1.88-.13-.2,0-.44-.07-.46-.29s.24-.28.42-.36A4.43,4.43,0,0,1,35.9,79.19Z"/><path class="cls-112" d="M38.65,9.45c0-.6,0-1.2,0-1.81a5.93,5.93,0,0,1,.57-3.39c.54-.9.28-2,.88-2.94A1,1,0,0,1,41.2.81a.55.55,0,0,1,.44.76c-.45.81-1.28,1.5-.49,2.53-1.07.4-.65,1.31-.69,2.05a1.18,1.18,0,0,1-.87,1.11c.18.36.54.3.76.46.41.28.44.94.14,1C39.19,9,40,9.84,40,10.42a3.07,3.07,0,0,0,.29,1.05c-.21.19,0,.68-.42.68s-.48-.35-.58-.61C39,10.86,38.89,10.14,38.65,9.45Z"/><path class="cls-16" d="M38.65,9.45a3.29,3.29,0,0,1,.64,1.82.74.74,0,0,0,.47.71c.37.09.23-.42.49-.51.54,2.11,1.08,4.23,1.61,6.34.08.31.33.61.12,1-.75-.09-.29-1.08-.93-1.25A3.75,3.75,0,0,1,40,15a43.13,43.13,0,0,0-1.32-4.77,2.36,2.36,0,0,1,0-.6Z"/><path class="cls-113" d="M52.35,39.9c.24.27.5.54.72.82a.65.65,0,0,0,1,.09c.41-.32.19-.6,0-.93-.54-.78-1.3-1.38-1.4-2.47a3.45,3.45,0,0,1,.27-2.31c.49-.81.09-1.56-.17-2.3s-.15-.87.6-.68c1.06.27,1.13.15.91-.94a5.46,5.46,0,0,0,0-.58c-.08-.31-.37-.56-.05-.91s.73-.17,1.11-.07.57.31.79-.08-.07-.54-.25-.78c-.74-1-.56-1.63.52-2.2a7.74,7.74,0,0,0,1-.78l.09.12a13.51,13.51,0,0,0,.14,3,1.43,1.43,0,0,1-.29,1.22.81.81,0,0,0-.16.92,2.81,2.81,0,0,1-.29,2.85c-.23.33-.32.75-.56,1.06a3.28,3.28,0,0,0-.39,3.23c.33,1.21.82,2.63,0,4a14.07,14.07,0,0,0,.61,2.4c-.39-.1-.74-.54-1.19-.16-.06-1.49-1.17-2.14-2.24-2.84a8.61,8.61,0,0,0-.83-.49C51.49,40.62,51.54,40.25,52.35,39.9Z"/><path class="cls-114" d="M55.58,62.48c-.14-.68-.44-1.35,0-2a3.37,3.37,0,0,0,2-1.4,3.61,3.61,0,0,0,2-1.41.64.64,0,0,1,.4-.24A9,9,0,0,0,61.69,57a11.55,11.55,0,0,1,4-.64A1.9,1.9,0,0,0,66.87,56c.3-.18.62-.44,1-.17H69c-.61.51-1.23.81-1.55,1.41a10.6,10.6,0,0,0-2.62,1.62,4.58,4.58,0,0,1-3.17,1.22.76.76,0,0,0-.76.53A14.61,14.61,0,0,0,60.21,62a3.43,3.43,0,0,1-2.75,2.21C56.41,64.11,56,63.27,55.58,62.48Z"/><path class="cls-115" d="M52.74,50.57c0-.27,0-.54,0-.81.14-.4.28-.8.41-1.2,1,0,1.49-.72,1.91-1.53.22-.43.27-1.14,1-1.06s.67.68.78,1.21a21.86,21.86,0,0,0,.67,2.4c.36,1.07.18,1.53-.82,1.93a2.28,2.28,0,0,1-2.45-.66C53.79,50,53.34,50.08,52.74,50.57Z"/><path class="cls-116" d="M53,55.85c-.13-1,.16-1.46,1.23-1h.1c.72,0,1.7-.12,2,.57a3.74,3.74,0,0,1-.36,3.35c-.25.43-.81.73-1.2.42s-1.61,0-1.57-1.22A14.62,14.62,0,0,0,53,55.85Z"/><path class="cls-117" d="M51.74,61.06l-.19-.19a24.37,24.37,0,0,0,.4-5.65,10.16,10.16,0,0,1,.23,5.22A.68.68,0,0,1,51.74,61.06Z"/><path class="cls-118" d="M16.26,18.73l-.55-1c.33-.34,1,.69,1.16-.24.32-.06.71-.26.95-.15,1.53.73,3.22,1.16,4.48,2.39-1-.25-1.73-1-2.71-1.28-.74-.21-.18.32-.3.45.31.67,1,.92,1.47,1.47s.3.64-.27.76A29.46,29.46,0,0,1,16.26,18.73Z"/><path class="cls-119" d="M20.49,21.15c.4,0,.44-.25.18-.52a9.14,9.14,0,0,0-1-1,.73.73,0,0,1-.38-.74,21.69,21.69,0,0,1,3.51,2.82A1.65,1.65,0,0,1,23.42,23C22.39,22.34,21.18,22.2,20.49,21.15Z"/><path class="cls-120" d="M72.32,36.87a3.35,3.35,0,0,1,1.77-.19,3.55,3.55,0,0,0,2-.63,5.5,5.5,0,0,1,2.72-.66c.3,0,.68,0,.83-.17.65-1,1.65-.63,2.53-.75.22,0,.49-.08.61.21a.58.58,0,0,1-.21.72c-1.05.71-1.79,1.71-3.08,2.27-1.69.72-3.39,1.48-5.08,2.2a11.44,11.44,0,0,1-4.28.83A2,2,0,0,1,68,40.64a.81.81,0,0,1-.35-1.26,2.52,2.52,0,0,1,1-1c.91-.5,1.87-.91,2.73-1.5A.77.77,0,0,1,72.32,36.87Z"/><path class="cls-121" d="M72.32,36.87a17.36,17.36,0,0,0-4.16,2.29c-.84.64-.66,1.08.35,1.4a6.12,6.12,0,0,0,1.59.14c-.17.51.43.9.2,1.41-2.58,1-5.14,2.15-7.74,3.13-1,.39-.92-.49-.93-1.11,2.65,0,4.91-1.43,7.54-2.1-1.81-.21-3.43.27-5.07.14-.5,0-1.11.08-1.26-.66a15.31,15.31,0,0,0,2.63-2.82c.22,0,.51,0,.67-.08,1.61-1.19,3.79-.9,5.39-2.1.13-.1.39,0,.58,0Z"/><path class="cls-122" d="M40.45,85.06c0-.68-.11-1.29,1-1.14A2.29,2.29,0,0,0,43.28,83h.4c.51.73,1.27,1.34,1.06,2.42a2.35,2.35,0,0,1-.25,1c.52,0,1,.16,1.08.8,0,.27.27.37.52.4a1.33,1.33,0,0,1,1,.54c.42.59,1.05.27,1.59.3.28,0,.34-.29.29-.54-.19-1.12.54-1.81,1.22-2.5a1.65,1.65,0,0,0-.16-2.56,5.58,5.58,0,0,1-.48-.37,2.88,2.88,0,0,0-3.75-.38c-.58.3-1.2.84-1.95.32.44-.61.92-1.19,1.3-1.83s1-.22,1.44-.34c1.07-.26,1.94-1.11,3.1-1.06a5,5,0,0,0,1.85,1.55c.42.63-.25.86-.49,1.28a4.31,4.31,0,0,1,1.54,2.19,1.82,1.82,0,0,1-.49,2.65c-.17.11-.37.28-.35.47.13,1.29-1.07,1.68-1.67,2.47a1.86,1.86,0,0,1-1.31.69,1.61,1.61,0,0,0-1.2.63.72.72,0,0,1-1.07.14,8.38,8.38,0,0,0-3.05-1.65,1.21,1.21,0,0,1-.78-1.19,1.17,1.17,0,0,0-.59-1.06c-.71-.44-.72-.75-.14-1.45.38-.44.69-.85.12-1.35-.65-.16-.72.48-1,.77a.56.56,0,0,1-.56,0A.19.19,0,0,1,40.45,85.06Z"/><path class="cls-123" d="M40.46,85.26h.6c.86.25.86.25,1-1a1,1,0,0,1,.32,1.65c-.89.92-.9.93.22,1.39.39.16.46.37.38.78-.18,1,.06,1.34,1.06,1.42a10.12,10.12,0,0,1,2.3,1.3c.44.6.87.76,1.24-.05a.77.77,0,0,1,.81-.45,2.07,2.07,0,0,0,1.86-1,5.22,5.22,0,0,1,.86-.83c.12-.11.36-.27.34-.32-.43-1.14.6-1.44,1.11-2.06s0-1.25-.22-1.86c.43-.37.19-.72,0-1.06a1.2,1.2,0,0,1,.27-1.77,3.13,3.13,0,0,0,.86-1.09,1.86,1.86,0,0,1,1-1c.37-.15.8-.43.62-.89s-.67-.28-1-.16a2.07,2.07,0,0,1-.49.12.48.48,0,0,1-.39-.16c-.11-.58-.39-.75-.91-.4a1.31,1.31,0,0,1-1.16.31A3.63,3.63,0,0,0,52.26,77c.47-.87,1-.9,1.73-.27.39.37.81.34,1.51.1-.89-.27-1.4-.68-1.53-1.42l.4,0a1.37,1.37,0,0,1,1.66.16,5.33,5.33,0,0,1,.72.78c.19.23.36.49.53.73.39.55.25,1-.38,1.16a1.3,1.3,0,0,0-1,1.12,2.21,2.21,0,0,1-.36.93,1.6,1.6,0,0,0,.14,2.4c.62.61.2,1.41,0,2.08s-.79.89-1.07,1.43c0,0-.12.12-.17.1-1.23-.49-.91.74-1.29,1.18a4.39,4.39,0,0,0-.32.51,12.06,12.06,0,0,1-2.67,2.15,25.88,25.88,0,0,1-3.73,2.11,1.22,1.22,0,0,1-1.68-.68c-.64-1.25-2-2-2.49-3.33-.13-.34-.76-.49-1.16-.73s-.52-.49-.63-.85S40.09,85.71,40.46,85.26Z"/><path class="cls-62" d="M43.88,82.44a2.9,2.9,0,0,0,2-.75,1.44,1.44,0,0,1,1.24-.33,2.68,2.68,0,0,0,1.29,0c.17,0,.38-.13.46,0,.49.93,1.54,1.25,2.14,2.06.19.26.4.5-.1.66a.29.29,0,0,0-.14.12c.71,1.07-.48,1.22-.84,1.78s-1,1.19-.69,2.15c.18.47-.14.79-.77.67S47,89,46.66,88c0-.07-.23-.1-.36-.12s-.29,0-.4,0c-.69-.32-.84-1.36-1.8-1.34a.43.43,0,0,0,0-.19c-.34-.5.91-.22.39-.79s0-.73.17-1.18c-1.14.13-.8-.76-1-1.33Z"/><path class="cls-124" d="M53.16,78.2h.4a1.69,1.69,0,0,1-1.12,2.63,1.72,1.72,0,0,1-.9,0,2,2,0,0,1-1.82-1.61A20.56,20.56,0,0,0,53.16,78.2Z"/><path class="cls-125" d="M22,87.28a4,4,0,0,0,.36-.35c.71-.9.94-.9,1.56,0,.94-1,.94-1,2-.08a.76.76,0,0,0,1,0c.67,1,.65,1-.38,1.31-.46.11-.89.29-1.36.37-1.48.22-1.58.43-.83,1.68.29.8.9.85,1.62.75s1.3-.43,1.8.28l-.07.11a8.94,8.94,0,0,1-3,.55.3.3,0,0,0-.16,0,13,13,0,0,1-1.27-2.59c-.24-.63-.41-1.28-1.17-1.49C21.85,87.73,21.76,87.53,22,87.28Z"/><path class="cls-126" d="M16.58,88.7c-.36.07-.68.29-1.07.2-.16-.38-.64-.39-.95-.72a16.19,16.19,0,0,0,1.86-1.09c.27-.17.6-.55,1-.19C17.37,87.59,16.65,88,16.58,88.7Z"/><path class="cls-14" d="M97.12,51.39a4.09,4.09,0,0,0-3.39-.59A2.61,2.61,0,0,1,95.61,50a4.59,4.59,0,0,0,1.69-.09c.86-.29.85.43,1,.89.07.3-.22.36-.48.23-.42-.21-.63-.06-.65.39Z"/><path class="cls-14" d="M101.16,52.4c0-.36-.43-.72.14-1.18-.08.47,1.06.87-.15,1.17Z"/><path class="cls-127" d="M60,57.63l-.41,0c-.27,0-.67,0-.57-.37.41-1.37-.1-2.83.58-4.2.34-.69.67-1,1.4-.87s1.54.63,2.62-.06c-.39.54-.79,1-.18,1,.93-.05,1.65.52,2.57.55a18.09,18.09,0,0,0,2.9-.43,11,11,0,0,1,2-.25c-.19.3-.56.14-.8.31l-.29.23c.83,1.14-.62.8-.83,1.27-.09.2-.29.35-.29.61l-.81.4c-1.92,1.24-4.24.63-6.27,1.4-1-1.2-1-1.78-.12-3,.16-.22.32-.44.18-.73a.53.53,0,0,0-.46-.33c-.41,0-.4.37-.54.62A8.73,8.73,0,0,0,60,57.63Z"/><path class="cls-128" d="M76.55,29.82c0-.12.16-.34.13-.36-1.28-.86,0-.92.36-1.39.88-1.15,2.33-1.68,3.09-2.93.05-.08.17-.11.25-.16a.78.78,0,0,0,.49-.6c.14-1.13,1.15-1.44,1.86-2,.26-.21.81-.13.72-.65s-.68-.09-1-.38l2.2-2c.33-.3.64-.34.89.08s.13.6-.29.76c-.2.08-.49.3-.49.46-.06,1.61-1.45,2.15-2.39,3.05-.23.22-.72.36-.41.73s.51.16.87-.15a15.47,15.47,0,0,1,2.51-1.64,1.53,1.53,0,0,0,.91-1.24A1.25,1.25,0,0,1,87,20.24c.93-.47,1.5-1.44,2.52-1.78.13,0,.24-.16.13-.31-.26-.35-.37-.7.19-.81s1,0,1.14.56c.24,1.07,0,2.17.17,3.27.06.3-.43,1-1.11,1-.3-.32-.1-.63,0-.92a4,4,0,0,0,.32-2.07,22.89,22.89,0,0,0-2.72,3.21c-.5.71-.55,1.14.16,1.61a.6.6,0,0,1-.38.62c-3.41,1.64-6.89,3.12-10.16,5A2.72,2.72,0,0,1,76.55,29.82Z"/><path class="cls-129" d="M87.86,24a3.14,3.14,0,0,0-.56-.2c-.72-.11-.75-.38-.29-.9a21.84,21.84,0,0,0,1.57-2.27c.47-.7,1.39-1,1.72-1.9a.21.21,0,0,1,.34-.05c.2.15.11.33.12.53a8.38,8.38,0,0,1-.7,3A14.7,14.7,0,0,0,88.84,24Z"/><path class="cls-130" d="M70.5,67.14A12,12,0,0,0,75,68a11.66,11.66,0,0,1,4,.36c1,.34,2,.83,3.09,1.07a4.47,4.47,0,0,0,1.85.3c.56-.1.85.45,1.25.71a16.67,16.67,0,0,1,1.31,1.08c.13.1.34.27.42.23,1.1-.54,1.24.46,1.81,1a2.73,2.73,0,0,0,2.39.64c1-.32,1.52.25,2.08.77a2.68,2.68,0,0,0,1.11.77c.7.2.84.87.83,1.55.4.92.11,1.39-.85,1.19a1.65,1.65,0,0,0-1.7.5c-.5.52-1.18.37-1.81.39a16.91,16.91,0,0,1-2.61-.75,75,75,0,0,0-11.79-2c-2.16-.27-4.35-.37-6.48-.83a8.45,8.45,0,0,0-2.79-.19c-.16,0-.33,0-.5,0-.55,0-1.31.12-1.37-.65s.62-1,1.26-1.22a7.86,7.86,0,0,1,2-.09c.69,0,1-.29.93-1a2.06,2.06,0,0,1,0-.7c.22-.84-.26-1.16-1-1.33l-.39-.07c-.5-.08-.93-.28-1-.83s.3-.78.68-1c.14-.09.31-.14.46-.22A3.8,3.8,0,0,1,70.5,67.14Z"/><path class="cls-131" d="M99.33,86.56c-.26.21-.53.41-.8.61-.28-.26-.79.18-1-.33A12,12,0,0,1,95,84.12,3,3,0,0,0,93,82.41a.65.65,0,0,1-.61-.73.58.58,0,0,1,.3-.4,1.24,1.24,0,0,1,1.15.1,9.91,9.91,0,0,0,2.55,1.09,8,8,0,0,1,1.69.07c.37.22.66-.08,1-.18a5.55,5.55,0,0,1,2.13.68c.27.22.53,0,.79,0a3.42,3.42,0,0,1,2.68,1c.13.14.32.26.21.49a.42.42,0,0,1-.42.2,18.13,18.13,0,0,1-3-.25c-.45-.06-2.45-.17-1.38-.06-.61-.07-.93-.58-1.3-.84C99,84.45,98.82,85.59,99.33,86.56Z"/><path class="cls-132" d="M99.34,80.41c-.71.43-1.48.18-2.22.21a4.23,4.23,0,0,1-1.38-1.41c-.28-.62-.55-.81-1-.22a.51.51,0,0,1-.61.23A2.88,2.88,0,0,0,92.72,79c-.67-.15-1.43-.08-1.86-.78.73,0,1.43.05,1.93-.72A.91.91,0,0,1,94,77.26c.94.43,1.24.15,1.16-.87,2.06-.1,2.82.4,3.8,2.61C99.1,79.44,99.75,79.78,99.34,80.41Z"/><path class="cls-132" d="M101.14,83A3.7,3.7,0,0,1,99,82.36c-.2-.6.23-.51.53-.43a2.18,2.18,0,0,0,1,.08C101.05,81.93,101.15,82.57,101.14,83Z"/><path class="cls-42" d="M56,42.11a20.17,20.17,0,0,0-.13-2.71,3.29,3.29,0,0,0-.41-2,1.54,1.54,0,0,1,.11-1.76A26.22,26.22,0,0,0,57.09,33c.33-.65-.06-1.3-.1-1.95-.2-.42-.12-.72.34-.86.21.12.2.33.19.53,0,.74.39,1.08,1,1.27.86.26.95.54.45,1.26a1.26,1.26,0,0,1-.26.31,1.29,1.29,0,0,0-.39,1.91,1.36,1.36,0,0,1-.09,1.61c-.32.42-.08.75.2,1.07a.78.78,0,0,0,1.08.18c.7-.42,1.31-.81,2.19-.2.4.27,1-.22,1.3-.71s-.09-.79-.55-.95a.62.62,0,0,1-.4-.73c.16-1.46,0-3,.77-4.32a.65.65,0,0,0-.11-.91,1.86,1.86,0,0,1-.5-1.94c0-.37.22-.75,0-1.07C61,26,61.92,24.5,62,23c0-.55.63-.73,1.2-.42.41.22.75.56,1.32.86A8,8,0,0,0,63.07,21c-.29-.27-.63-.54-.5-1,1.12.08,1.6.93,2.08,1.76h0c.33.85,1,1.52,1.25,2.4.1.37.13.65-.21.88s-.58-.06-.74-.28c-.27-.37-.56-.56-1-.31s-.33.62-.27,1A1.77,1.77,0,0,0,65,27c.86.26,1.63,2.57,1.26,3.46-.11.27-.37.52-.2.84.62,1.21-.13,1.87-1,2.52a2.94,2.94,0,0,0-.57.54c-.11.15-.27.35-.13.55s.3.09.46,0c.7-.25.79.17.84.71.12,1.57-.86,2.65-1.7,3.75s-1.71,1.87-2.56,2.81A5.46,5.46,0,0,1,60,43.32c-.23-.13-.47-.39-.68-.36C58.1,43.1,57.08,42.44,56,42.11Z"/><path class="cls-133" d="M62.84,41.51c1,.77,2.16.48,3.18.32s2.28.1,3.38-.25a.27.27,0,0,1,.34.15c.09.21-.08.3-.23.37a4.7,4.7,0,0,1-1,.4c-1.79.4-3.36,1.43-5.19,1.74a3.89,3.89,0,0,1-1.67-.11c-.07-.41-.14-.81-.22-1.21C61.56,42.12,62.38,42,62.84,41.51Z"/><path class="cls-134" d="M59.81,10.46a28.94,28.94,0,0,1,4-3.93,4.66,4.66,0,0,1,2.06-.68c.63-.12.81.62,1.34.86a4.51,4.51,0,0,1,2.83,3.36c-.74-.12-1-.76-1.49-1.22a4.76,4.76,0,0,0-2-1.69,2.33,2.33,0,0,0-1.76,0,.94.94,0,0,0-.46,1.55c.93,1.33.59,2.6,0,3.9-.26.58-.42,1.2-.73,1.76a.69.69,0,0,0-.05.68c.55,1-.13,2,0,3,0,.08-.11.16-.19.22-.25.12-.39,0-.49-.21a1.66,1.66,0,0,0-.34-.82,1.91,1.91,0,0,1,.25-2.87c.47-.45.32-.93.15-1.56-.43.43-.12,1.41-.84,1.23s-.27-.91-.15-1.7c-.92,1.1-1.7.4-2.49.28-.15-.85.57-1,1.08-1.24.16-.08.4,0,.58-.1a.72.72,0,0,0,.36-.93c-.19-.41-.54-.24-.84-.06s-.43.44-.78.32Z"/><path class="cls-104" d="M62.84,18.12l.39.21a.13.13,0,0,1,.06.13s0,.06,0,.06c-1,.7-.93.66.07,1.48.57.46,1.33.84,1.34,1.75a6.7,6.7,0,0,0-2-1.81,1.75,1.75,0,0,1-.64-.32c-.2-.12-.41-.22-.62-.33-1-.54-1.89-1.1-3.12-.38a2,2,0,0,1-2.48-.38c.07-.14.13-.28.2-.41.34-.86,1.05-.9,1.81-.81a3.68,3.68,0,0,1,3.34.39C61.62,18,62.13,18.56,62.84,18.12Z"/><path class="cls-135" d="M57.79,17.31c-.59.29-1.33.27-1.81.81a1.87,1.87,0,0,1-1.41-2.82,1,1,0,0,0,.58-.62c.17-.58.49-.35.81-.17a4.5,4.5,0,0,0,1.33,1.71A1.09,1.09,0,0,1,57.79,17.31Z"/><path class="cls-136" d="M59.82,10.67a5.85,5.85,0,0,0,.54-.45A.93.93,0,0,1,61.53,10c.34.15.33.47.25.79-.12.52-.47,1.12-.92,1-.91-.19-1.07.46-1.44.92-.83,1-.71,2.31-1.48,3.3C57.87,14,58.92,12.35,59.82,10.67Z"/><path class="cls-137" d="M66.67,7a2,2,0,0,1,1.44.9,28.5,28.5,0,0,0,2,2.14l0,.18c-.14.77.48,1.28.7,1.93a12.17,12.17,0,0,1,.25,4c0,.7-.28,1.41-1.25,1.37a1.82,1.82,0,0,0-.57.19c-1.31.53-1.31.53-1.76-.8.41-.64-.21-1.28,0-1.94-.23,0-.45.29-.71.1s-.91-.4-1.16,0,0,1,.25,1.49c.1.19.36.29.49.48s.22.61,0,.6c-.83,0-.67.83-1.12,1.1h-.21a2.51,2.51,0,0,1-1.15-2.66c.73-1.83.54-3.82,1-5.69a1.76,1.76,0,0,0,0-.79A2.07,2.07,0,0,1,66.67,7Z"/><path class="cls-138" d="M65.26,18.73c.25-.45.33-.88-.13-1.26.14-.07.19-.11.25-.13.33-.07.64.69.91.14.18-.34-.41-.5-.62-.76a2.39,2.39,0,0,1-.45-1.52c0-.63.8-.35,1-.8,0,0,.16,0,.17,0,.42,1,1,.17,1.87.1-1.27.69.32,1.79-.75,2.39-.33-.19-.65,0-.53.15.39.54-.18.71-.29,1.05C66.23,18.4,65.84,18.78,65.26,18.73Z"/><path class="cls-139" d="M99.33,86.56c-.61-.21-.5-.8-.56-1.24-.12-.77-.16-1.56-.33-2.35.38.65,1.11.85,1.55,1.39-.1.78.48.77,1,.75s.83-.26,1.2.11a1.18,1.18,0,0,1-.17.69c-.36.81-.67.91-1.49.46C100.07,86.26,99.72,86.49,99.33,86.56Z"/><path class="cls-140" d="M100.48,86.37c1.16.5,1.22-.6,1.66-1.15l1.28.48a3.15,3.15,0,0,0-.39,2.24c0,.55,0,.79-.55.49s-1.36-.67-2-1S100.4,86.71,100.48,86.37Z"/><path class="cls-141" d="M105.25,85.86a.5.5,0,0,1-.64.28c.13-.17.26-.34.4-.49s.07-.26.2-.1S105.24,85.75,105.25,85.86Z"/><path class="cls-142" d="M66.67,7C65.91,7.21,66,8.36,65,8.37c-.22,0-.08.41,0,.61a2.88,2.88,0,0,1,0,2.23c-.34.91-.09,1.91-.31,2.86a9.24,9.24,0,0,1-.4,1.63,3.11,3.11,0,0,0,.76,3,1.17,1.17,0,0,1-.47,1c-.15.12-.26.36-.48.29a.42.42,0,0,1-.23-.58c.23-.62-.27-.7-.63-.9a1.21,1.21,0,0,0,0-.19c-.18-1.1.74-2.18-.07-3.35-.37-.52.51-1,.63-1.65s.71-1.43.81-2.22.23-1.52-.49-2.13a1.32,1.32,0,0,1-.19-1.5,1,1,0,0,1,1.13-.62C65.59,7,66.23,6.2,66.67,7Z"/><path class="cls-143" d="M24.13,90.31c-.25-.45-.83-.87-.54-1.41a1.52,1.52,0,0,1,1.49-.62c.75,0,1.32-.66,2.15-.34-.11-.46-.36-.73-.3-1.08l.41-.6a1.2,1.2,0,0,1,1.57,0c.83.54,1.19.5,1.78-.29.34-.47.6-.42,1-.13a.89.89,0,0,0,.83.26c1.66-.59,3.32-.25,5-.09a1.76,1.76,0,0,0,1.11-.41c1.12-.62,1.38-.54,1.92.65.05.12,0,.27.13.37l.43.8c0,.45-.29.66-.75.55-.09,0-.18-.1-.27-.11-.49,0-1.09-.26-1.42.17s.26.8.36,1.23c0,.15.23.24.17.44-.25.3-.45-.3-.67,0a.4.4,0,0,0,0,.37c.14.34.45.21.7.19a1.69,1.69,0,0,0,.45-.18.41.41,0,0,1,0,.63l-1.8.43v-.06a4,4,0,0,1-1.49-2.4l-.2-.19a.53.53,0,0,0-.79.13,1.72,1.72,0,0,1-1.65.73,1.47,1.47,0,0,0-1,.39,1.64,1.64,0,0,1-2.6-.16c-.12-.11-.22-.27-.4-.23-1.17.19-2.31-.25-3.47-.15-.59,0-1.27,0-1.41.9C24.77,90.48,24.44,90.5,24.13,90.31Z"/><path class="cls-144" d="M50.13,90.1c.57-1,1.78-1.3,2.42-2.22.91-1,2.08-1.74,2.91-2.83a3.37,3.37,0,0,0,.73-1.62,1.35,1.35,0,0,1,.21-.77c.52-.6.64-1.09-.14-1.62-.49-.34-.12-.94-.17-1.42-.09-.76.34-.84.91-.79.34,0,.55-.21.76-.43.94-.93,1-.93,2,.06.16.46-.1.9,0,1.35a7.7,7.7,0,0,1-1.12,3l-.94,1.28a2.86,2.86,0,0,0-.59,3A1,1,0,0,1,57,88.29a1.51,1.51,0,0,1-.43-.85c-.13-.52-.51-.62-1-.57-.74-.21-1.19.33-1.63.72a25.49,25.49,0,0,0-4,3.79,5.55,5.55,0,0,1-2.16,1.75c-.44.19-.22.38-.09.6a.74.74,0,0,1-1.16-.29c-.22-.46.46-.5.59-.77.58-1.21,2.28-.89,2.81-2.11A4.28,4.28,0,0,0,50.13,90.1Z"/><path class="cls-145" d="M47.72,93.73c-.3,0-.68-.09-.68-.43s.4-.27.62-.38a9.64,9.64,0,0,0,2.94-2.6A24.11,24.11,0,0,1,55,86.51c.46-.33.48.06.54.36l-4.26,4.18c-.35.34-.3,1-.78,1.23-1,.06-1.45.87-2.09,1.45Z"/><path class="cls-146" d="M41.07,90.71c.41,1.09-.81,1.31-1.09,2-.07.17-.22.05-.33,0a2.7,2.7,0,0,0-.34-.17c-.69,1.48-1.94-.19-2.78.49a.25.25,0,0,1-.41-.1c-.07-.19.1-.3.25-.39a.93.93,0,0,1,.45-.19c1.44.07,2.37-1.13,3.64-1.47C40.55,90.46,40.8,90.54,41.07,90.71Z"/><path class="cls-147" d="M41.07,90.71c-.22,0-.46,0-.61.18-.28,0-.59.08-.82-.18v-.63c.71-1,1.72-1.32,2.41-.7.19.17.45.35.39.66s-.37.35-.61.44Z"/><path class="cls-148" d="M57,88.29a9.86,9.86,0,0,0-.38-1.73,1.35,1.35,0,0,1,.08-1.31,8.71,8.71,0,0,1,1.71-2.42,1.41,1.41,0,0,1,.3,1.21c0,.7.3.95,1,.93a1.92,1.92,0,0,1,1.34.24c.09.53-.35.45-.62.5-.45.09-.91,0-1.36.08s-.39.5-.3.82.43.43.73.38c.63-.11,1.11,0,1.35.67.09.28.35.29.58.11.49-.37.86-.29,1.12.28.18.41.53.45.92.41a1.57,1.57,0,0,1,1.69.6.45.45,0,0,0,.63.14c.76-.39,1.18.16,1.63.6a.54.54,0,0,1,.14.64c-.37.78-.24,1.06.6,1.38.3.11.8,0,.81.52-.08.19-.16.39-.25.58-.28.14-.55.6-.81-.08-.15-.4-2.57-1.22-3-1.1s-.4.3-.45.59a1.89,1.89,0,0,1-2.11,1.52,7.6,7.6,0,0,1-2.7-.58c-.23-.15-.36,0-.48.16a1.23,1.23,0,0,1-1.22.5c-1.56,0-2-.59-1.7-2.13A15.56,15.56,0,0,0,57,88.29Z"/><path class="cls-149" d="M92.47,79.42c0,.36.24.51.58.57a4.32,4.32,0,0,1,3,2.63,3.16,3.16,0,0,0,1,1.18,5.44,5.44,0,0,1,1.64,1.86c-.13.94,1,.57,1.21,1.2a3.37,3.37,0,0,1-.81.59c-.51-.7-1.3-1.12-1.79-1.86s-1,0-1.44.09c-.62-.17-.92-.76-1.4-1.11a14.62,14.62,0,0,0-2.69-1.72c0-.61.38-1.21,0-1.82a1.81,1.81,0,0,1-.17-1.21C91.86,79.49,92.08,79.29,92.47,79.42Z"/><path class="cls-150" d="M91.87,82.83c1.8.32,2.91,1.6,4,2.85l-.21.38c0,.36.28.58.4.87s.17.57-.25.66a4,4,0,0,0-2.13-.11,7,7,0,0,0-1.59-.07c-.46.06-.65-.24-.35-.61a1.51,1.51,0,0,0-.23-2.41c-.39-.32-.17-.88-.26-1.32C91.24,82.83,91.56,82.62,91.87,82.83Z"/><path class="cls-151" d="M93.71,87.3a2.09,2.09,0,0,1,2.19.21.74.74,0,0,1,.61.35c.09.24.3.33.49.47s1,.26.7.82-.5,1.22-1.4.68a1.48,1.48,0,0,0-1.59.06c-.27.38-.54.11-.82,0C93,88.72,93,88,93.71,87.3Z"/><path class="cls-152" d="M101.77,91.12a5.09,5.09,0,0,1-2.09-.18c-.33-.11-.63-.17-.87.18a1.78,1.78,0,0,1-.4,0c-.29-.07-.54-.25-.51-.55s.47-.31.66-.23a15.31,15.31,0,0,0,2.52.28A1,1,0,0,1,101.77,91.12Z"/><path class="cls-153" d="M99.15,87.45c0-.55.41-.57.81-.59a4.18,4.18,0,0,1,.57.54c.16.24.76.34.43.7a.83.83,0,0,1-1.17,0C99.57,87.87,99.37,87.66,99.15,87.45Z"/><path class="cls-154" d="M96.51,87.86l-.61-.35c.35-.27.06-.44-.1-.63s-.47-.5-.09-.82A1.88,1.88,0,0,1,96.51,87.86Z"/><path class="cls-155" d="M93.71,87.3a1.65,1.65,0,0,0-.08,1.76,1.56,1.56,0,0,1,.26.83c-.36.06-.73,0-.86-.35-.59-1.62-2.07-1.5-3.34-1.66a25.47,25.47,0,0,0-3.27,0c-.21-.42-.5-.79-.7-1.2-.11-.23-.27-.41-.54-.37-.78.09-1.11-.45-1.43-1,.19-.53.53-.55.92-.22a1.28,1.28,0,0,0,1.74,0,2.47,2.47,0,0,1,1.51-.46c.66,0,.92-.35.55-.88s-.12-.82.36-1c-.28-.5-.76-.36-1.11-.53-.62-.3-.48-1-.72-1.48a1.49,1.49,0,0,1,1.5-.45.91.91,0,0,1,.26.13c.31.37.49.82,1,1s.18,1,.57,1.32A2.56,2.56,0,0,0,92.1,81a1.48,1.48,0,0,1-.23,1.81c-.18.08-.37,0-.36.4,0,1,.87,1.37,1.08,2.12s-.35,1.28-.94,1.92A3.07,3.07,0,0,1,93.71,87.3Z"/><path class="cls-156" d="M83.81,85.26c.57.28.91,1.18,1.78.65.2.67,1.08,1,.83,1.92-.48.29-1.3.36-.81,1.27.28.15.73.14.7.59s-.45.44-.76.55a2.85,2.85,0,0,1-.48.13c-.61.08-1.31.62-1.81.12s0-1.19.15-1.78a5.36,5.36,0,0,0,.16-.89c.22-1.34-.42-2-1.71-1.69a2.3,2.3,0,0,1-2.42-.95.84.84,0,0,1,.33-1.12,1.09,1.09,0,0,1,.77-.11c.6.69,1.53.64,2.27,1C83.12,85.13,83.5,85.09,83.81,85.26Z"/><path class="cls-157" d="M85,90.12l1.1-.34c.05-.44-.4-.42-.52-.68.81-.26,1.27.56,2,.64,1.23.14,2.44.5,3.65.76a2.73,2.73,0,0,0-2.79,1.19l-.66-.16c-1.18-.5-2.09-.26-3.16.83-.5-.18-.75-.52-.38-1S84.7,90.49,85,90.12Z"/><path class="cls-158" d="M92.64,91.32a5.93,5.93,0,0,0-1.37-.82,3,3,0,0,0,.68-.06c.35-.12.71-.27,1,.07S92.58,91,92.64,91.32Z"/><path class="cls-159" d="M68.92,92.34c-.65-.33-1.52-.24-1.94-1-.12-.22-.51-.31-.35-.64a.71.71,0,0,1,.8-.39c-.56-.33-.68-1.6-1.75-.67-.22.19-.62,0-.69-.23-.33-1-1.1-.78-1.75-.64s-.89-.09-1-.63-.44-.59-.66-.22c-.75,1.24-1,0-1.1-.29s-.28-.44-.69-.38c-1.39.2-1.74-.35-1.18-1.76.45.9,1.41.65,2.13.9a2.19,2.19,0,0,0,1.46-.16.35.35,0,0,1,.35.2A2,2,0,0,0,64.47,88a6.43,6.43,0,0,1,1.85.39,1.22,1.22,0,0,0,1.42-1.09,3.26,3.26,0,0,1,.65-1.41c-.25-.27-.55-.17-.79-.27s-.75-.29-.71-.69.49-.33.78-.45a27,27,0,0,1,4-.07,3,3,0,0,1,.88.2c.3.11.57.29.56.64s-.39.43-.67.42c-.51,0-.89.11-.93.66s-.81.51-1.07,1.09c.56,0,1-.47,1.44-.21.07,1-.37,1.67-1.18,1.68-.77.5-1.37,1.3-2.36,1.43a.2.2,0,0,0-.17.29.44.44,0,0,0,.4.27c.61,0,1,.26.92,1Z"/><path class="cls-160" d="M73.94,93.12a3.06,3.06,0,0,1,.41-2.19l.81-.82c.76-.65,1.76-.56,2.63-.89a6.69,6.69,0,0,1,2.71-.13.51.51,0,0,1,.33.31c-.18.37-.55.6-.59,1.1s-.69.52-1.09.72-1.05.14-1,.77.61.79,1.16.91a5,5,0,0,0,1.68,0,3.19,3.19,0,0,1,2.23.18c-.16.39-.48.41-.83.4A51,51,0,0,1,77,93.4a13.64,13.64,0,0,0-1.87.14A1.78,1.78,0,0,1,73.94,93.12Z"/><path class="cls-161" d="M70.72,88.9c.94-.16.69-1.16,1.17-1.64a.77.77,0,0,1,.76-.69,22.56,22.56,0,0,1,3-.66,2,2,0,0,1,.77.22c.55.3.63.84.12,1.21a3.39,3.39,0,0,1-1.87.92,1.52,1.52,0,0,0-1,.89c-.46.87-1.43,1-2.16,1.49-.24.15-.7,0-.41-.44C71.54,89.55,71.13,89.24,70.72,88.9Z"/><path class="cls-162" d="M74.71,88.26c.46-.31.9-.64,1.37-.92.27-.16.69-.17.65-.61s-.43-.43-.75-.5c-.09,0-.16-.1-.24-.16.14-.61.66-.45,1.05-.49a2.93,2.93,0,0,1,1.1.08c.14.06.39.16.29.32-.29.48-.05,1.07-.18,1.44-.24.7,0,1.4-.27,2a12.72,12.72,0,0,1-2.57.64c-.2,0-.47-.12-.38-.33C75,89.24,74.75,88.77,74.71,88.26Z"/><path class="cls-163" d="M83.21,93.12c-1.4-.18-2.79.4-4.18,0a1.48,1.48,0,0,1-1-.56c-.4-.65-.39-1.16.47-1.41a7.47,7.47,0,0,0,1-.35c.27-.11.75,0,.46-.69s.41-.61.84-.65c.66,0,.9.54,1.12,1a2.92,2.92,0,0,0,1.2,1.66.55.55,0,0,1,.24.78Z"/><path class="cls-164" d="M85,90.12a1.36,1.36,0,0,1-.54,1.37c-.55.36.14.57.17.87s0,.38,0,.57c-.34.08-.57.69-1,.19a.39.39,0,0,0,0-.54,5.65,5.65,0,0,1-1-2.19c0-.26-.11-.58-.45-.15-.14.17-.36,0-.39-.13a2.84,2.84,0,0,0-1.68-1.74c.2-.36.56-.35.88-.35a1.82,1.82,0,0,0,1.51-.59c.46-.5,1-.44,1.26.23s-.24,1.32-.4,2-.17,1.05.69.7A4.86,4.86,0,0,1,85,90.12Z"/><path class="cls-165" d="M80.18,88.47c1.38-.33,1.52.77,1.81,1.68.37-.2,0-.64.42-.76.37.17.39.57.47.9a4.72,4.72,0,0,0,1,2.23c.42.45.08.54-.3.6l-.23-.2c-.19-.37-.26-.81-.81-.91-.39-.08-.49-.48-.61-.85a2.53,2.53,0,0,0-1.14-1.69l-.24-.18c-.13-.12-.3-.09-.47-.11s-.61.09-.59-.32S79.84,88.4,80.18,88.47Z"/><path class="cls-166" d="M24.13,90.31c.22,0,.63,0,.54-.28-.38-1.18.84-1,1.13-1a7.68,7.68,0,0,1,2.53.08c.44.13.85.33,1.3-.06.28-.24.54,0,.71.28a1.22,1.22,0,0,0,2.12.35,1.45,1.45,0,0,1,1.38-.54,1.12,1.12,0,0,0,1.28-.66c.25-.51.89-.64,1.3.06a.61.61,0,0,0-.36.52c.25-.09.15-.42.36-.53.19.09.38.23.37.43a1.59,1.59,0,0,0,1,1.67c.25.11.16.32.08.5a6.93,6.93,0,0,0-3.28,1.4c-.33.22-.63.67-1,.32s.05-.67.24-1c.41-.62.12-.74-.46-.75a13.26,13.26,0,0,0-2.28.25,17.69,17.69,0,0,1-3.26-.1,2.93,2.93,0,0,0-1.85,0C25.09,91.44,24.3,91.43,24.13,90.31Z"/><path class="cls-167" d="M24.48,91.62a8.14,8.14,0,0,1,3.71-.68l1.79.49c.16.91-.17,1.21-1.13,1.24-1.37,0-2.7-.34-4.06-.3C24.13,92.39,24.32,92,24.48,91.62Z"/><path class="cls-168" d="M56,75.77a2.1,2.1,0,0,0-1.61-.4c.57-.81,1.27-1.57.82-2.7a.84.84,0,0,1,0-.68c.75-1.08.09-2-.34-2.87a1.61,1.61,0,0,1,0-1.87c.63-1.09,1.56-2.46.77-4a2.2,2.2,0,0,1-.11-.78c.69.44.93,1.4,1.82,1.61.27.13.71.09.61.61.27,1,1.34,1,2,1.58-.69.42-.7,1.19-1,1.83-.58,0-.5-.46-.49-.76,0-.88-.59-1.12-1.2-1.39-.34-.16-.57,0-.76.28-.48.73-.21,1.56-.31,2.34,0,.15.17.29.34.32,1,.21.69.86.49,1.47a8,8,0,0,0-.45,4A1.26,1.26,0,0,1,56,75.77Z"/><path class="cls-169" d="M58,64.7l-.61-.61c1.83-.4,2.56-1.85,3.17-3.39.25-.63.52-1,1.3-.87a3,3,0,0,0,2-.52,2.06,2.06,0,0,1,1-.46,3,3,0,0,1-1.74,1.24c-.74.22-.77.62-.23,1.18s-.09,1.06-.3,1.11c-.59.13-.72.68-1.12.94A10.76,10.76,0,0,1,58,64.7Z"/><path class="cls-12" d="M73.75,61.31c.45.12,1.12-.3,1.14.49,0,.43-.38.5-.74.46s-1.05-.23-1.1-.7S73.54,61.35,73.75,61.31Z"/><path class="cls-16" d="M57.39,25.78c-.28-.81-.76-1.06-1.35-.33-.73.89-1.54.27-2.3.2-.55,0-1.05-.16-1.48.32-.19.21-.42.53-.75.34a.9.9,0,0,1-.35-1,9.54,9.54,0,0,1,2-4.71s0-.12.05-.18c-.32-.2-.56.16-.86.11l.21-.4a.59.59,0,0,1,.16-.37c.6-.52.24-1.11.11-1.67a.39.39,0,0,1,.13-.38c.19,0,.52,0,.55.12.35,1,1,1,1.8.58.06,0,.18.07.27.11.35.41.16.81,0,1.2s-.4.69-.57,1.06A.79.79,0,0,0,55.41,22a2.31,2.31,0,0,1,1.73,2.17c0,.3.35.49.46.77s.36.68-.2.84Z"/><path class="cls-73" d="M53,17.72v.4a1.7,1.7,0,0,1-.2,1.82l-.2.2a1.22,1.22,0,0,1-1.23-.53c-.12-.16-.23-.41-.39-.44-1.42-.33-.84-1.18-.54-2,.56-1.44,0-2.24-1.5-2.32a14.43,14.43,0,0,1-1.59-.21c-.62-.11-.42-.63-.37-1s0-1,.59-1a.94.94,0,0,0,.88-.25.73.73,0,0,1,1,.07c1.17.93,2.4,1.82,2.76,3.43A9.11,9.11,0,0,0,53,17.72Z"/><path class="cls-170" d="M57.4,25.79a8.49,8.49,0,0,0-1.18-3.18c-.24-.1-.52-.11-.76-.22-1.12-.54-1.26-1.28-.41-2.41a2,2,0,0,0,.53-1.45h.2a3.46,3.46,0,0,0,3.47-.3.62.62,0,0,1,.67,0l2.31,1.33c-.53.39-.95,0-1.39-.2-1-.43-1.24-.35-1.65.71a2.31,2.31,0,0,0-.1.28c-.16.46-.35.92-.91,1s-.68-.45-.86-.85a1.5,1.5,0,0,0-.53-.71c-.21-.13-.44-.25-.63,0s0,.44.14.59c.42.3.69.75,1.07,1.06,1.32,1.07,1,2.53.81,3.84s-.09,2.6-.32,3.89c-.07.42,0,.9-.47,1.13A.71.71,0,0,0,57,31c-.3-.25-.44-.53-.08-.83a1.53,1.53,0,0,0,.4-1.74A5.15,5.15,0,0,1,57.4,25.79Z"/><path class="cls-16" d="M47.92,18.33a2.59,2.59,0,0,1-.82-2.15.88.88,0,0,1,.7-.85c.51-.1.47.31.57.62a2.93,2.93,0,0,0,.39.69c.27.36.7.69.47,1.21s-.82.48-1.31.47Z"/><path class="cls-171" d="M40.64,86.67c-1-1.35-1-1.36-2.47-.43-.24.16-.48.31-.72.12-.67-.52-1.43-.19-2.12-.19-.51,0-1,.14-1.41-.21-.16-.14-.36-.06-.55.05-1.19.63-1.19.63-2.24-.19-.36,1-1.54,1.67-2.4.68-.44-.5-.93-.15-1.39-.24,0-.58.37-.69.82-.81A23.9,23.9,0,0,1,31.48,85c1.17-.11,2.28-.71,3.39-.58a27.84,27.84,0,0,0,3.16.25c.3,0,.67.07.88-.07.76-.5,1.16-.09,1.54.48a1.34,1.34,0,0,0,0,.2C40.41,85.74,40.77,86.18,40.64,86.67Z"/><path class="cls-172" d="M60,57.63c-.67-1.73.18-3.24.72-4.78.12-.34.44-.18.66,0s.86.32.72.91a.32.32,0,0,1-.11.17c-1.39.94-1,2.1-.4,3.28A3,3,0,0,1,60,57.63Z"/><path class="cls-29" d="M51.54,80.82c.5-.37,1.2-.13,1.69-.72a1.53,1.53,0,0,0,.33-1.89l.26-.14c.6-.3,1.33-.57,1.62.22.22.6-.36,1.12-1,1.29a1,1,0,0,0-.71.62,3.34,3.34,0,0,1-1.12,1.47c-.59.43-.55,1,0,1.54s.49.86-.27,1A3,3,0,0,0,51,82.33c-.48-.26-.68-.55.07-.7C51.48,81.53,51.56,81.21,51.54,80.82Z"/><path class="cls-109" d="M42.07,84.25a2.52,2.52,0,0,1,.18.55c0,.35.13.79-.28,1s-.69-.18-.91-.51A.88.88,0,0,1,42.07,84.25Z"/><path class="cls-173" d="M59,68.12c.05.11.14.34.2.26.62-.89,1.54-.64,2.38-.65,1,0,2.07,0,3.1,0,0,.51-.56.39-.88.71a4.45,4.45,0,0,1,1.75.7c.64.48.66.88,0,1.36-.32.24-.63.5-1,.72-.1.07-.32.15-.27.25.41.83-.33,1-.74,1.38s-.8.56-.74,1.12.64.48,1,.64a.28.28,0,0,1,.22.29c-.28.39-.71.34-1.1.33A14.5,14.5,0,0,1,59.09,75a.39.39,0,0,0-.49.24,2.72,2.72,0,0,0-.11.38c-.23,1.5-.66,1.66-1.9.73L56,75.77c.32-.64.83-1.26.24-2a.59.59,0,0,1,0-.49c.53-1.07.1-2.37.82-3.41.22-.32.35-.65-.39-.61-.45,0-1-.32-.63-1.1.27-.63-.09-1.4.37-2.08.37-.53.6-.49,1.2-.34C59,66.08,58.73,67.2,59,68.12Z"/><path class="cls-8" d="M56.59,76.39c.15,0,.32.08.47.14.94.38,1.07.31,1.14-.7,0-.23,0-.47.15-.65.37.25.34.64.32,1,0,.89.41,1.12,1.22,1.17a12.23,12.23,0,0,0,2.57-.22,7.08,7.08,0,0,0,2-.2,12.31,12.31,0,0,1,4,.28,74.42,74.42,0,0,0,8.31.49,12,12,0,0,1,6.4,1.84c.89.54.88,1.48,1,2.38.21-.23.29-.58.67-.52a2.08,2.08,0,0,1-.67,2.14,2.59,2.59,0,0,0-.6.9,6.3,6.3,0,0,1-.73.82,3.94,3.94,0,0,0-1.32-.43c-.41,0-.86-.2-.9-.76.53-.49,1.26-.42,1.87-.67s.81-.37.21-1-1-1-1.89-1a.65.65,0,0,1-.74-.75c0-.48-.23-.82-.7-.81-1.56.06-2.9-.83-4.4-.94a33.77,33.77,0,0,0-3.76-.15c-1.51.06-3,0-4.52.14-1,.09-1.78-.69-2.76-.84a5.08,5.08,0,0,0-2.16.09c-.67.19-1.37.63-2.11.2a.81.81,0,0,1-.61-.31c-.32-.37-.5-.2-.77.11-.42.48-.76,1.24-1.66.81a.32.32,0,0,0-.27.08c-.26.29.09,2,.48,2.08.63.2.65.48.26.92s-.43,1.2-.67,1.73a9.52,9.52,0,0,1-3.84,4,13.33,13.33,0,0,0,1.09-2.52c.42,0,.27.36.37.54s.3.38.43.12c.43-.86,1.35-1.47,1.32-2.57a1,1,0,0,0-.32-.79,1.47,1.47,0,0,1-.26-2.31,2.33,2.33,0,0,0,.45-1c.14-.73.28-1.47,1.33-1.43.34,0,.5-.29.24-.65S56.79,76.7,56.59,76.39Z"/><path class="cls-174" d="M69.9,74.57a47.43,47.43,0,0,0-5.84.21c-.47-.21-1.22.43-1.47-.56a1.07,1.07,0,0,1,.35-1.14,15.64,15.64,0,0,1,1.36-1c0-.38-.5-.38-.57-.82.82.07,1.19-.69,1.84-1,.38-.17.37-.49,0-.78a3.69,3.69,0,0,0-1.93-.75c-.2,0-.45-.06-.45-.29s.24-.27.45-.31a2.37,2.37,0,0,0,1-.37h3.63l-.43.22c-.3.2-.71.35-.63.8a.72.72,0,0,0,.91.57c.6-.1,1,.36,1.49.51.11,0,.27.31.24.38a5.38,5.38,0,0,0-.17,2.25c0,.41-.26.49-.6.49H67.18a2.87,2.87,0,0,0-.88.11c-.44.16-1,.43-.93.92s.68.34,1.08.38C67.6,74.49,68.77,74.14,69.9,74.57Z"/><path class="cls-175" d="M94.08,79.22a.89.89,0,0,0,.25-.16c1-1,.93-1,1.66.22.3.49,1,.7,1.13,1.34A12.69,12.69,0,0,1,94.08,79.22Z"/><path class="cls-176" d="M57.39,30.22a12.13,12.13,0,0,0,.31-3.45A17,17,0,0,1,58.05,24c.15-1.71-.84-2.63-2-3.51-.38-.29-.59-.47-.32-.95s.67-.46,1.08-.2a1.49,1.49,0,0,1,.81,1.2c0,.24.14.55.49.54a.68.68,0,0,0,.59-.48c.14-.34.21-.7.35-1,.41-1,.65-1.07,1.66-.6a3.09,3.09,0,0,0,1.49.54l.41.41a21.21,21.21,0,0,1,2,3.15c.09.24.31.43.3.8a3.14,3.14,0,0,1-1.6-.89c-.76-.57-1.18-.45-1.32.44-.16,1,.2,2.15-.3,3.18-.08.17.11.31.27.37.79.3.62.87.49,1.49s-.32,1.47.57,1.92c.37.19.36.54.13.86-1,1.38-.63,3-.93,4.56-.08.39.2.42.49.45.9.1.71.76.58,1.29s-.77.48-1.11.79-.74.14-1.06-.26-.72,0-1,.17c-1.27.78-1.37.76-2.28-.39-.23-.29-.3-.53,0-.76.8-.62.51-1.37.07-1.94s-.31-.93.16-1.33c.2-.18.39-.38.57-.57.63-.71.59-.85-.31-1S57.12,31.27,57.39,30.22Z"/><path class="cls-23" d="M37.7,89.2c-.28-.2-.64-.39-.64-.8s.34-.34.59-.32c.51,0,.39.45.39.76S38,89.25,37.7,89.2Z"/><path class="cls-177" d="M78.2,85.91c-.82,0-1.66-.28-2.46.16-1.26.46-2.68.41-3.85,1.19a2,2,0,0,0-1,.44c-.16.17-.28.42-.57.26s-.18-.37-.11-.61a3.89,3.89,0,0,0,0-.78c.65.32,1.11.3,1.09-.61,0-.4.19-.78.78-.54.26.1.59.12,1.14-.27-2-.82-3.8-.37-5.58-.49a18.47,18.47,0,0,1-3.15.51,1.44,1.44,0,0,0-1.24.73c-.18.31-.38.66-.84.55l-.2-.2c-.47-.24-.69-.78-1.2-1l-.2,0c-2.41-.07-2.41-.07-2.46-2.43.2-1,1.1-1.86,1-3a1.27,1.27,0,0,1,2.08-.18c.63.59,1.08,1.06,2,.58.42-.21,1.3-.33,1.34.87,1.1-1.68,2.74-1,4.13-1.22.29-.05.65.06.85-.2.9-1.2,2.1-.88,3.2-.53a22.51,22.51,0,0,1,3.29,1.39,7.55,7.55,0,0,0,3.24,1.32c.56,0,.82.43.8,1A2.59,2.59,0,0,1,80,84.25c-.64.14-.31.66-.4,1C79.32,85.9,78.8,86,78.2,85.91Z"/><path class="cls-178" d="M80,84.25a4.85,4.85,0,0,1,.15-1.19c.2-.8-.17-1.19-1-1-.57.16-.85.1-1-.5s-.83-.39-1.24-.45a2.09,2.09,0,0,1-1-.5,8.07,8.07,0,0,0-4.52-1.5c-.41,0-1-.06-1.12.7,0,.27-.45.43-.76.36a15.8,15.8,0,0,0-2.48,0c-.6,0-1.23-.16-1.49.76-.13.47-.81.2-1.26.21,0-.41.44-.34.47-.63-.12-.42-1.82-.11-2,.38,0,.11,0,.28-.17.31-.89-1.71-2.06-2.26-3.06-1.44-.11-.49.21-.92.21-1.4a5.33,5.33,0,0,0,1.46-.29c1.26-.64,2.51-.3,3.78-.13.5.06.62.65,1.19.63,1.69-.07,3.39,0,5.08-.1a10.28,10.28,0,0,1,1.37.09,11.13,11.13,0,0,1,4.09.44,6.23,6.23,0,0,0,2.89.57c.54,0,1,.32.86.87-.21,1.15.76.82,1.07.72.64-.22.9-.08,1,.51a.61.61,0,0,0,.47.56c.29.11.75.19.66.61a1,1,0,0,1-.78.72,12.06,12.06,0,0,1-2.15.44Z"/><path class="cls-179" d="M63.11,89.63c-.71.53-1.12,1-.74,1.78a.41.41,0,0,1-.22.59c-.3.12-.29-.15-.41-.35-.39-.66-1-.33-1.54-.19-.11,0-.19.19-.3.26-.36.26-.45,1.11-.94.82s-.07-1,.14-1.35c.33-.66,0-1.64.66-2s1.34.41,2.11.13C62.15,89.23,62.56,89.49,63.11,89.63Z"/><path class="cls-180" d="M61.05,85.28c.83-.21,1,.46,1.2,1-.68.85-1.52.36-2.3.24-.2,0-.41-.26-.64-.2-.84.22-.75-.31-.7-.82A7.71,7.71,0,0,0,61.05,85.28Z"/><path class="cls-181" d="M88.65,80.42a1.36,1.36,0,0,1,.29.06c1.69.78,1.69.78,2.94-.66A2.59,2.59,0,0,0,92.1,81c0,.74,0,1.31-1,1.55s-1,.45-1.21-.67c0-.16,0-.43-.21-.38C88.59,81.79,89,80.77,88.65,80.42Z"/><path class="cls-182" d="M82.81,85.25c-.11-.49.24-.64.59-.79a17.47,17.47,0,0,0,3.5-2.39.54.54,0,0,1,.72-.06c.72,0,1.45-.05,1.67.92-.2.26-.55,0-.81.16,0,0,0,.12,0,.14a1.21,1.21,0,0,1,.44,1.33c-.13.47-.69.29-1.08.29a1.88,1.88,0,0,0-1.3.41,1.29,1.29,0,0,1-2-.05c-.33-.38-.49-.18-.71.05S83.14,85.3,82.81,85.25Z"/><path class="cls-183" d="M83.57,77.77c.77-.4,1.05.19,1.22.7a1,1,0,0,0,1,.8c1.1,0,1.9.82,2.9,1.12a2.76,2.76,0,0,0-1.65.42c-.7.32-1.56,0-2.2.59-.51.2-.24.89-.74,1.17-.34-.93-.12-2-.86-2.79-.28-.17-.74-.39-.59-.69.31-.58,1-.16,1.47-.27C84.2,78.31,83.68,78.14,83.57,77.77Z"/><path class="cls-184" d="M84.81,81.4c.49-1.09,1.43-.53,2.2-.59s.22.9.61,1.2a7.12,7.12,0,0,0-2.09,1.47,3.4,3.4,0,0,1-2.13,1c0-.41-.08-.74.52-1.06S84.72,82.18,84.81,81.4Z"/><path class="cls-185" d="M78.2,85.91l1.38-.65c.13,0,.34,0,.39,0,.63.91,1.44.76,2.3.44.7-.26.92.41,1.34.71a.79.79,0,0,1,.18,1.22c-.51-.43-1-.59-1.29.21-.14.37-.44.4-.8.42-.51,0-1-.18-1.52.18-.65.46-.65.48-.23.61.22.06.47,0,.63.21a13,13,0,0,0-2.85.18c.12-.18.2-.33-.09-.45a.41.41,0,0,1-.27-.56c.35-.59.67-1.07.08-1.79C77.2,86.38,78,86.26,78.2,85.91Z"/><path class="cls-148" d="M62.45,86.45a.85.85,0,0,0,.55-.54c.24-1,1-1,1.79-1a16.46,16.46,0,0,1,2.89-.2c-.14.25-.43.14-.69.29l.71.51s0,.09,0,.1a4.26,4.26,0,0,0-1.44,3.13,4.3,4.3,0,0,0-2.09-.43A1.85,1.85,0,0,1,62.45,86.45Z"/><path class="cls-186" d="M66.27,88.69a2.85,2.85,0,0,0,0-.59,1.73,1.73,0,0,1,1-2.24,1.8,1.8,0,0,0,.43-.4,7.15,7.15,0,0,1,.8,0c.45.06.51.43.2.61-.55.32-.6.81-.7,1.33A1.49,1.49,0,0,1,66.27,88.69Z"/><path class="cls-143" d="M36.42,88.48a2.54,2.54,0,0,1,0,.39c-.06.26.18.67-.26.72a.46.46,0,0,1-.47-.52c.07-.33.12-.87.73-.58Z"/><path class="cls-48" d="M52.76,19.94a5.08,5.08,0,0,0,.2-1.82C53.37,18.78,53.66,19.43,52.76,19.94Z"/><path class="cls-187" d="M83.57,77.77a.71.71,0,0,1,.63.42c.12.29.57.51.32.87s-.55.07-.83,0A6.54,6.54,0,0,0,82.8,79c-.09.42.34.5.41.78a10.93,10.93,0,0,0-3.58-1.37,18.19,18.19,0,0,0-3.32-.47,37.23,37.23,0,0,1-8-.52,19,19,0,0,0-5.93,0,5.61,5.61,0,0,1,2.48-.58,45.62,45.62,0,0,1,9.63.64c.89.18,1.79,0,2.68.12a8.88,8.88,0,0,1,2.67.26A2.26,2.26,0,0,0,82,77.55C82.57,77.13,83,77.77,83.57,77.77Z"/><path class="cls-188" d="M77.21,77.55a7.54,7.54,0,0,1-2.68-.12A8.31,8.31,0,0,1,77.21,77.55Z"/></g></g></svg>